<?xml version="1.0" encoding="utf-8" standalone="no"?>
<!DOCTYPE svg PUBLIC "-//W3C//DTD SVG 1.1//EN"
  "http://www.w3.org/Graphics/SVG/1.1/DTD/svg11.dtd">
<!-- Created with matplotlib (http://matplotlib.org/) -->
<svg height="288pt" version="1.1" viewBox="0 0 360 288" width="360pt" xmlns="http://www.w3.org/2000/svg" xmlns:xlink="http://www.w3.org/1999/xlink">
 <defs>
  <style type="text/css">
*{stroke-linecap:butt;stroke-linejoin:round;}
  </style>
 </defs>
 <g id="figure_1">
  <g id="patch_1">
   <path d="M 0 288 
L 360 288 
L 360 0 
L 0 0 
z
" style="fill:#ffffff;"/>
  </g>
  <g id="axes_1">
   <g id="patch_2">
    <path d="M 42.59 241.72 
L 346.68 241.72 
L 346.68 13.32 
L 42.59 13.32 
z
" style="fill:#ffffff;"/>
   </g>
   <g id="PolyCollection_1">
    <defs>
     <path d="M 56.412273 -68.848143 
L 56.412273 -56.661818 
L 76.158377 -62.89989 
L 95.904481 -60.79706 
L 115.650584 -67.70079 
L 135.396688 -66.961428 
L 155.142792 -82.721667 
L 174.888896 -99.221466 
L 194.635 -104.615111 
L 214.381104 -117.661816 
L 234.127208 -132.925046 
L 253.873312 -140.156012 
L 273.619416 -171.658457 
L 293.365519 -174.652879 
L 313.111623 -183.926864 
L 332.857727 -210.527603 
L 332.857727 -240.568102 
L 332.857727 -240.568102 
L 313.111623 -225.021691 
L 293.365519 -195.405533 
L 273.619416 -191.099259 
L 253.873312 -170.905023 
L 234.127208 -158.303509 
L 214.381104 -131.19603 
L 194.635 -132.21007 
L 174.888896 -116.908646 
L 155.142792 -96.989613 
L 135.396688 -100.38009 
L 115.650584 -86.692296 
L 95.904481 -71.457115 
L 76.158377 -81.715324 
L 56.412273 -68.848143 
z
" id="m0122a5e257" style="stroke:#df7a5e;stroke-opacity:0.25;"/>
    </defs>
    <g clip-path="url(#p5f2a59f157)">
     <use style="fill:#df7a5e;fill-opacity:0.25;stroke:#df7a5e;stroke-opacity:0.25;" x="0" xlink:href="#m0122a5e257" y="288"/>
    </g>
   </g>
   <g id="PolyCollection_2">
    <defs>
     <path d="M 56.412273 -104.020222 
L 56.412273 -99.69508 
L 76.158377 -99.736646 
L 95.904481 -98.627702 
L 115.650584 -106.936004 
L 135.396688 -117.572372 
L 155.142792 -135.980869 
L 174.888896 -130.827198 
L 194.635 -143.455704 
L 214.381104 -168.164308 
L 234.127208 -160.567678 
L 253.873312 -171.977783 
L 273.619416 -186.809829 
L 293.365519 -193.760596 
L 313.111623 -216.87336 
L 332.857727 -227.205662 
L 332.857727 -264.298182 
L 332.857727 -264.298182 
L 313.111623 -229.551473 
L 293.365519 -217.241742 
L 273.619416 -202.177784 
L 253.873312 -196.154338 
L 234.127208 -198.687679 
L 214.381104 -181.564788 
L 194.635 -180.682741 
L 174.888896 -152.98382 
L 155.142792 -144.062929 
L 135.396688 -131.540846 
L 115.650584 -126.413906 
L 95.904481 -109.450221 
L 76.158377 -105.194033 
L 56.412273 -104.020222 
z
" id="mb3478f9d7a" style="stroke:#f2cc8e;stroke-opacity:0.25;"/>
    </defs>
    <g clip-path="url(#p5f2a59f157)">
     <use style="fill:#f2cc8e;fill-opacity:0.25;stroke:#f2cc8e;stroke-opacity:0.25;" x="0" xlink:href="#mb3478f9d7a" y="288"/>
    </g>
   </g>
   <g id="matplotlib.axis_1">
    <g id="xtick_1">
     <g id="line2d_1">
      <defs>
       <path d="M 0 0 
L 0 3.5 
" id="mb843cca1bf" style="stroke:#000000;stroke-width:0.8;"/>
      </defs>
      <g>
       <use style="stroke:#000000;stroke-width:0.8;" x="56.412273" xlink:href="#mb843cca1bf" y="241.72"/>
      </g>
     </g>
     <g id="text_1">
      <!-- 1 -->
      <defs>
       <path d="M 12.40625 8.296875 
L 28.515625 8.296875 
L 28.515625 63.921875 
L 10.984375 60.40625 
L 10.984375 69.390625 
L 28.421875 72.90625 
L 38.28125 72.90625 
L 38.28125 8.296875 
L 54.390625 8.296875 
L 54.390625 0 
L 12.40625 0 
z
" id="DejaVuSans-31"/>
      </defs>
      <g transform="translate(53.231023 256.318438)scale(0.1 -0.1)">
       <use xlink:href="#DejaVuSans-31"/>
      </g>
     </g>
    </g>
    <g id="xtick_2">
     <g id="line2d_2">
      <g>
       <use style="stroke:#000000;stroke-width:0.8;" x="95.904481" xlink:href="#mb843cca1bf" y="241.72"/>
      </g>
     </g>
     <g id="text_2">
      <!-- 2 -->
      <defs>
       <path d="M 19.1875 8.296875 
L 53.609375 8.296875 
L 53.609375 0 
L 7.328125 0 
L 7.328125 8.296875 
Q 12.9375 14.109375 22.625 23.890625 
Q 32.328125 33.6875 34.8125 36.53125 
Q 39.546875 41.84375 41.421875 45.53125 
Q 43.3125 49.21875 43.3125 52.78125 
Q 43.3125 58.59375 39.234375 62.25 
Q 35.15625 65.921875 28.609375 65.921875 
Q 23.96875 65.921875 18.8125 64.3125 
Q 13.671875 62.703125 7.8125 59.421875 
L 7.8125 69.390625 
Q 13.765625 71.78125 18.9375 73 
Q 24.125 74.21875 28.421875 74.21875 
Q 39.75 74.21875 46.484375 68.546875 
Q 53.21875 62.890625 53.21875 53.421875 
Q 53.21875 48.921875 51.53125 44.890625 
Q 49.859375 40.875 45.40625 35.40625 
Q 44.1875 33.984375 37.640625 27.21875 
Q 31.109375 20.453125 19.1875 8.296875 
z
" id="DejaVuSans-32"/>
      </defs>
      <g transform="translate(92.723231 256.318438)scale(0.1 -0.1)">
       <use xlink:href="#DejaVuSans-32"/>
      </g>
     </g>
    </g>
    <g id="xtick_3">
     <g id="line2d_3">
      <g>
       <use style="stroke:#000000;stroke-width:0.8;" x="135.396688" xlink:href="#mb843cca1bf" y="241.72"/>
      </g>
     </g>
     <g id="text_3">
      <!-- 3 -->
      <defs>
       <path d="M 40.578125 39.3125 
Q 47.65625 37.796875 51.625 33 
Q 55.609375 28.21875 55.609375 21.1875 
Q 55.609375 10.40625 48.1875 4.484375 
Q 40.765625 -1.421875 27.09375 -1.421875 
Q 22.515625 -1.421875 17.65625 -0.515625 
Q 12.796875 0.390625 7.625 2.203125 
L 7.625 11.71875 
Q 11.71875 9.328125 16.59375 8.109375 
Q 21.484375 6.890625 26.8125 6.890625 
Q 36.078125 6.890625 40.9375 10.546875 
Q 45.796875 14.203125 45.796875 21.1875 
Q 45.796875 27.640625 41.28125 31.265625 
Q 36.765625 34.90625 28.71875 34.90625 
L 20.21875 34.90625 
L 20.21875 43.015625 
L 29.109375 43.015625 
Q 36.375 43.015625 40.234375 45.921875 
Q 44.09375 48.828125 44.09375 54.296875 
Q 44.09375 59.90625 40.109375 62.90625 
Q 36.140625 65.921875 28.71875 65.921875 
Q 24.65625 65.921875 20.015625 65.03125 
Q 15.375 64.15625 9.8125 62.3125 
L 9.8125 71.09375 
Q 15.4375 72.65625 20.34375 73.4375 
Q 25.25 74.21875 29.59375 74.21875 
Q 40.828125 74.21875 47.359375 69.109375 
Q 53.90625 64.015625 53.90625 55.328125 
Q 53.90625 49.265625 50.4375 45.09375 
Q 46.96875 40.921875 40.578125 39.3125 
z
" id="DejaVuSans-33"/>
      </defs>
      <g transform="translate(132.215438 256.318438)scale(0.1 -0.1)">
       <use xlink:href="#DejaVuSans-33"/>
      </g>
     </g>
    </g>
    <g id="xtick_4">
     <g id="line2d_4">
      <g>
       <use style="stroke:#000000;stroke-width:0.8;" x="174.888896" xlink:href="#mb843cca1bf" y="241.72"/>
      </g>
     </g>
     <g id="text_4">
      <!-- 4 -->
      <defs>
       <path d="M 37.796875 64.3125 
L 12.890625 25.390625 
L 37.796875 25.390625 
z
M 35.203125 72.90625 
L 47.609375 72.90625 
L 47.609375 25.390625 
L 58.015625 25.390625 
L 58.015625 17.1875 
L 47.609375 17.1875 
L 47.609375 0 
L 37.796875 0 
L 37.796875 17.1875 
L 4.890625 17.1875 
L 4.890625 26.703125 
z
" id="DejaVuSans-34"/>
      </defs>
      <g transform="translate(171.707646 256.318438)scale(0.1 -0.1)">
       <use xlink:href="#DejaVuSans-34"/>
      </g>
     </g>
    </g>
    <g id="xtick_5">
     <g id="line2d_5">
      <g>
       <use style="stroke:#000000;stroke-width:0.8;" x="214.381104" xlink:href="#mb843cca1bf" y="241.72"/>
      </g>
     </g>
     <g id="text_5">
      <!-- 5 -->
      <defs>
       <path d="M 10.796875 72.90625 
L 49.515625 72.90625 
L 49.515625 64.59375 
L 19.828125 64.59375 
L 19.828125 46.734375 
Q 21.96875 47.46875 24.109375 47.828125 
Q 26.265625 48.1875 28.421875 48.1875 
Q 40.625 48.1875 47.75 41.5 
Q 54.890625 34.8125 54.890625 23.390625 
Q 54.890625 11.625 47.5625 5.09375 
Q 40.234375 -1.421875 26.90625 -1.421875 
Q 22.3125 -1.421875 17.546875 -0.640625 
Q 12.796875 0.140625 7.71875 1.703125 
L 7.71875 11.625 
Q 12.109375 9.234375 16.796875 8.0625 
Q 21.484375 6.890625 26.703125 6.890625 
Q 35.15625 6.890625 40.078125 11.328125 
Q 45.015625 15.765625 45.015625 23.390625 
Q 45.015625 31 40.078125 35.4375 
Q 35.15625 39.890625 26.703125 39.890625 
Q 22.75 39.890625 18.8125 39.015625 
Q 14.890625 38.140625 10.796875 36.28125 
z
" id="DejaVuSans-35"/>
      </defs>
      <g transform="translate(211.199854 256.318438)scale(0.1 -0.1)">
       <use xlink:href="#DejaVuSans-35"/>
      </g>
     </g>
    </g>
    <g id="xtick_6">
     <g id="line2d_6">
      <g>
       <use style="stroke:#000000;stroke-width:0.8;" x="253.873312" xlink:href="#mb843cca1bf" y="241.72"/>
      </g>
     </g>
     <g id="text_6">
      <!-- 6 -->
      <defs>
       <path d="M 33.015625 40.375 
Q 26.375 40.375 22.484375 35.828125 
Q 18.609375 31.296875 18.609375 23.390625 
Q 18.609375 15.53125 22.484375 10.953125 
Q 26.375 6.390625 33.015625 6.390625 
Q 39.65625 6.390625 43.53125 10.953125 
Q 47.40625 15.53125 47.40625 23.390625 
Q 47.40625 31.296875 43.53125 35.828125 
Q 39.65625 40.375 33.015625 40.375 
z
M 52.59375 71.296875 
L 52.59375 62.3125 
Q 48.875 64.0625 45.09375 64.984375 
Q 41.3125 65.921875 37.59375 65.921875 
Q 27.828125 65.921875 22.671875 59.328125 
Q 17.53125 52.734375 16.796875 39.40625 
Q 19.671875 43.65625 24.015625 45.921875 
Q 28.375 48.1875 33.59375 48.1875 
Q 44.578125 48.1875 50.953125 41.515625 
Q 57.328125 34.859375 57.328125 23.390625 
Q 57.328125 12.15625 50.6875 5.359375 
Q 44.046875 -1.421875 33.015625 -1.421875 
Q 20.359375 -1.421875 13.671875 8.265625 
Q 6.984375 17.96875 6.984375 36.375 
Q 6.984375 53.65625 15.1875 63.9375 
Q 23.390625 74.21875 37.203125 74.21875 
Q 40.921875 74.21875 44.703125 73.484375 
Q 48.484375 72.75 52.59375 71.296875 
z
" id="DejaVuSans-36"/>
      </defs>
      <g transform="translate(250.692062 256.318438)scale(0.1 -0.1)">
       <use xlink:href="#DejaVuSans-36"/>
      </g>
     </g>
    </g>
    <g id="xtick_7">
     <g id="line2d_7">
      <g>
       <use style="stroke:#000000;stroke-width:0.8;" x="293.365519" xlink:href="#mb843cca1bf" y="241.72"/>
      </g>
     </g>
     <g id="text_7">
      <!-- 7 -->
      <defs>
       <path d="M 8.203125 72.90625 
L 55.078125 72.90625 
L 55.078125 68.703125 
L 28.609375 0 
L 18.3125 0 
L 43.21875 64.59375 
L 8.203125 64.59375 
z
" id="DejaVuSans-37"/>
      </defs>
      <g transform="translate(290.184269 256.318438)scale(0.1 -0.1)">
       <use xlink:href="#DejaVuSans-37"/>
      </g>
     </g>
    </g>
    <g id="xtick_8">
     <g id="line2d_8">
      <g>
       <use style="stroke:#000000;stroke-width:0.8;" x="332.857727" xlink:href="#mb843cca1bf" y="241.72"/>
      </g>
     </g>
     <g id="text_8">
      <!-- 8 -->
      <defs>
       <path d="M 31.78125 34.625 
Q 24.75 34.625 20.71875 30.859375 
Q 16.703125 27.09375 16.703125 20.515625 
Q 16.703125 13.921875 20.71875 10.15625 
Q 24.75 6.390625 31.78125 6.390625 
Q 38.8125 6.390625 42.859375 10.171875 
Q 46.921875 13.96875 46.921875 20.515625 
Q 46.921875 27.09375 42.890625 30.859375 
Q 38.875 34.625 31.78125 34.625 
z
M 21.921875 38.8125 
Q 15.578125 40.375 12.03125 44.71875 
Q 8.5 49.078125 8.5 55.328125 
Q 8.5 64.0625 14.71875 69.140625 
Q 20.953125 74.21875 31.78125 74.21875 
Q 42.671875 74.21875 48.875 69.140625 
Q 55.078125 64.0625 55.078125 55.328125 
Q 55.078125 49.078125 51.53125 44.71875 
Q 48 40.375 41.703125 38.8125 
Q 48.828125 37.15625 52.796875 32.3125 
Q 56.78125 27.484375 56.78125 20.515625 
Q 56.78125 9.90625 50.3125 4.234375 
Q 43.84375 -1.421875 31.78125 -1.421875 
Q 19.734375 -1.421875 13.25 4.234375 
Q 6.78125 9.90625 6.78125 20.515625 
Q 6.78125 27.484375 10.78125 32.3125 
Q 14.796875 37.15625 21.921875 38.8125 
z
M 18.3125 54.390625 
Q 18.3125 48.734375 21.84375 45.5625 
Q 25.390625 42.390625 31.78125 42.390625 
Q 38.140625 42.390625 41.71875 45.5625 
Q 45.3125 48.734375 45.3125 54.390625 
Q 45.3125 60.0625 41.71875 63.234375 
Q 38.140625 66.40625 31.78125 66.40625 
Q 25.390625 66.40625 21.84375 63.234375 
Q 18.3125 60.0625 18.3125 54.390625 
z
" id="DejaVuSans-38"/>
      </defs>
      <g transform="translate(329.676477 256.318438)scale(0.1 -0.1)">
       <use xlink:href="#DejaVuSans-38"/>
      </g>
     </g>
    </g>
    <g id="text_9">
     <!-- r -->
     <defs>
      <path d="M 41.109375 46.296875 
Q 39.59375 47.171875 37.8125 47.578125 
Q 36.03125 48 33.890625 48 
Q 26.265625 48 22.1875 43.046875 
Q 18.109375 38.09375 18.109375 28.8125 
L 18.109375 0 
L 9.078125 0 
L 9.078125 54.6875 
L 18.109375 54.6875 
L 18.109375 46.1875 
Q 20.953125 51.171875 25.484375 53.578125 
Q 30.03125 56 36.53125 56 
Q 37.453125 56 38.578125 55.875 
Q 39.703125 55.765625 41.0625 55.515625 
z
" id="DejaVuSans-72"/>
     </defs>
     <g transform="translate(191.551797 273.795781)scale(0.15 -0.15)">
      <use xlink:href="#DejaVuSans-72"/>
     </g>
    </g>
   </g>
   <g id="matplotlib.axis_2">
    <g id="ytick_1">
     <g id="line2d_9">
      <defs>
       <path d="M 0 0 
L -3.5 0 
" id="mf84ed727af" style="stroke:#000000;stroke-width:0.8;"/>
      </defs>
      <g>
       <use style="stroke:#000000;stroke-width:0.8;" x="42.59" xlink:href="#mf84ed727af" y="227.70827"/>
      </g>
     </g>
     <g id="text_10">
      <!-- 2 -->
      <g transform="translate(29.2275 231.507488)scale(0.1 -0.1)">
       <use xlink:href="#DejaVuSans-32"/>
      </g>
     </g>
    </g>
    <g id="ytick_2">
     <g id="line2d_10">
      <g>
       <use style="stroke:#000000;stroke-width:0.8;" x="42.59" xlink:href="#mf84ed727af" y="185.371949"/>
      </g>
     </g>
     <g id="text_11">
      <!-- 3 -->
      <g transform="translate(29.2275 189.171168)scale(0.1 -0.1)">
       <use xlink:href="#DejaVuSans-33"/>
      </g>
     </g>
    </g>
    <g id="ytick_3">
     <g id="line2d_11">
      <g>
       <use style="stroke:#000000;stroke-width:0.8;" x="42.59" xlink:href="#mf84ed727af" y="143.035628"/>
      </g>
     </g>
     <g id="text_12">
      <!-- 4 -->
      <g transform="translate(29.2275 146.834847)scale(0.1 -0.1)">
       <use xlink:href="#DejaVuSans-34"/>
      </g>
     </g>
    </g>
    <g id="ytick_4">
     <g id="line2d_12">
      <g>
       <use style="stroke:#000000;stroke-width:0.8;" x="42.59" xlink:href="#mf84ed727af" y="100.699307"/>
      </g>
     </g>
     <g id="text_13">
      <!-- 5 -->
      <g transform="translate(29.2275 104.498526)scale(0.1 -0.1)">
       <use xlink:href="#DejaVuSans-35"/>
      </g>
     </g>
    </g>
    <g id="ytick_5">
     <g id="line2d_13">
      <g>
       <use style="stroke:#000000;stroke-width:0.8;" x="42.59" xlink:href="#mf84ed727af" y="58.362987"/>
      </g>
     </g>
     <g id="text_14">
      <!-- 6 -->
      <g transform="translate(29.2275 62.162205)scale(0.1 -0.1)">
       <use xlink:href="#DejaVuSans-36"/>
      </g>
     </g>
    </g>
    <g id="ytick_6">
     <g id="line2d_14">
      <g>
       <use style="stroke:#000000;stroke-width:0.8;" x="42.59" xlink:href="#mf84ed727af" y="16.026666"/>
      </g>
     </g>
     <g id="text_15">
      <!-- 7 -->
      <g transform="translate(29.2275 19.825884)scale(0.1 -0.1)">
       <use xlink:href="#DejaVuSans-37"/>
      </g>
     </g>
    </g>
    <g id="text_16">
     <!-- MAE -->
     <defs>
      <path d="M 9.8125 72.90625 
L 24.515625 72.90625 
L 43.109375 23.296875 
L 61.8125 72.90625 
L 76.515625 72.90625 
L 76.515625 0 
L 66.890625 0 
L 66.890625 64.015625 
L 48.09375 14.015625 
L 38.1875 14.015625 
L 19.390625 64.015625 
L 19.390625 0 
L 9.8125 0 
z
" id="DejaVuSans-4d"/>
      <path d="M 34.1875 63.1875 
L 20.796875 26.90625 
L 47.609375 26.90625 
z
M 28.609375 72.90625 
L 39.796875 72.90625 
L 67.578125 0 
L 57.328125 0 
L 50.6875 18.703125 
L 17.828125 18.703125 
L 11.1875 0 
L 0.78125 0 
z
" id="DejaVuSans-41"/>
      <path d="M 9.8125 72.90625 
L 55.90625 72.90625 
L 55.90625 64.59375 
L 19.671875 64.59375 
L 19.671875 43.015625 
L 54.390625 43.015625 
L 54.390625 34.71875 
L 19.671875 34.71875 
L 19.671875 8.296875 
L 56.78125 8.296875 
L 56.78125 0 
L 9.8125 0 
z
" id="DejaVuSans-45"/>
     </defs>
     <g transform="translate(22.107969 143.860625)rotate(-90)scale(0.15 -0.15)">
      <use xlink:href="#DejaVuSans-4d"/>
      <use x="86.279297" xlink:href="#DejaVuSans-41"/>
      <use x="154.6875" xlink:href="#DejaVuSans-45"/>
     </g>
    </g>
   </g>
   <g id="line2d_15">
    <path clip-path="url(#p5f2a59f157)" d="M 56.412273 225.245019 
L 76.158377 215.692393 
L 95.904481 221.872912 
L 115.650584 210.803457 
L 135.396688 204.329241 
L 155.142792 198.14436 
L 174.888896 179.934944 
L 194.635 169.587409 
L 214.381104 163.571077 
L 234.127208 142.385723 
L 253.873312 132.469482 
L 273.619416 106.621142 
L 293.365519 102.970794 
L 313.111623 83.525722 
L 332.857727 62.452148 
" style="fill:none;stroke:#df7a5e;stroke-linecap:square;stroke-width:1.5;"/>
    <defs>
     <path d="M 0 -3 
L -0.673542 -0.927051 
L -2.85317 -0.927051 
L -1.089814 0.354102 
L -1.763356 2.427051 
L -0 1.145898 
L 1.763356 2.427051 
L 1.089814 0.354102 
L 2.85317 -0.927051 
L 0.673542 -0.927051 
z
" id="m85d39f5fb0" style="stroke:#df7a5e;stroke-linejoin:bevel;"/>
    </defs>
    <g clip-path="url(#p5f2a59f157)">
     <use style="fill:#df7a5e;stroke:#df7a5e;stroke-linejoin:bevel;" x="56.412273" xlink:href="#m85d39f5fb0" y="225.245019"/>
     <use style="fill:#df7a5e;stroke:#df7a5e;stroke-linejoin:bevel;" x="76.158377" xlink:href="#m85d39f5fb0" y="215.692393"/>
     <use style="fill:#df7a5e;stroke:#df7a5e;stroke-linejoin:bevel;" x="95.904481" xlink:href="#m85d39f5fb0" y="221.872912"/>
     <use style="fill:#df7a5e;stroke:#df7a5e;stroke-linejoin:bevel;" x="115.650584" xlink:href="#m85d39f5fb0" y="210.803457"/>
     <use style="fill:#df7a5e;stroke:#df7a5e;stroke-linejoin:bevel;" x="135.396688" xlink:href="#m85d39f5fb0" y="204.329241"/>
     <use style="fill:#df7a5e;stroke:#df7a5e;stroke-linejoin:bevel;" x="155.142792" xlink:href="#m85d39f5fb0" y="198.14436"/>
     <use style="fill:#df7a5e;stroke:#df7a5e;stroke-linejoin:bevel;" x="174.888896" xlink:href="#m85d39f5fb0" y="179.934944"/>
     <use style="fill:#df7a5e;stroke:#df7a5e;stroke-linejoin:bevel;" x="194.635" xlink:href="#m85d39f5fb0" y="169.587409"/>
     <use style="fill:#df7a5e;stroke:#df7a5e;stroke-linejoin:bevel;" x="214.381104" xlink:href="#m85d39f5fb0" y="163.571077"/>
     <use style="fill:#df7a5e;stroke:#df7a5e;stroke-linejoin:bevel;" x="234.127208" xlink:href="#m85d39f5fb0" y="142.385723"/>
     <use style="fill:#df7a5e;stroke:#df7a5e;stroke-linejoin:bevel;" x="253.873312" xlink:href="#m85d39f5fb0" y="132.469482"/>
     <use style="fill:#df7a5e;stroke:#df7a5e;stroke-linejoin:bevel;" x="273.619416" xlink:href="#m85d39f5fb0" y="106.621142"/>
     <use style="fill:#df7a5e;stroke:#df7a5e;stroke-linejoin:bevel;" x="293.365519" xlink:href="#m85d39f5fb0" y="102.970794"/>
     <use style="fill:#df7a5e;stroke:#df7a5e;stroke-linejoin:bevel;" x="313.111623" xlink:href="#m85d39f5fb0" y="83.525722"/>
     <use style="fill:#df7a5e;stroke:#df7a5e;stroke-linejoin:bevel;" x="332.857727" xlink:href="#m85d39f5fb0" y="62.452148"/>
    </g>
   </g>
   <g id="line2d_16">
    <path clip-path="url(#p5f2a59f157)" d="M 56.412273 186.142349 
L 76.158377 185.534661 
L 95.904481 183.961039 
L 115.650584 171.325045 
L 135.396688 163.443391 
L 155.142792 147.978101 
L 174.888896 146.094491 
L 194.635 125.930777 
L 214.381104 113.135452 
L 234.127208 108.372321 
L 253.873312 103.933939 
L 273.619416 93.506193 
L 293.365519 82.498831 
L 313.111623 64.787583 
L 332.857727 42.248078 
" style="fill:none;stroke:#f2cc8e;stroke-linecap:square;stroke-width:1.5;"/>
    <defs>
     <path d="M 0 1.5 
C 0.397805 1.5 0.77937 1.341951 1.06066 1.06066 
C 1.341951 0.77937 1.5 0.397805 1.5 0 
C 1.5 -0.397805 1.341951 -0.77937 1.06066 -1.06066 
C 0.77937 -1.341951 0.397805 -1.5 0 -1.5 
C -0.397805 -1.5 -0.77937 -1.341951 -1.06066 -1.06066 
C -1.341951 -0.77937 -1.5 -0.397805 -1.5 0 
C -1.5 0.397805 -1.341951 0.77937 -1.06066 1.06066 
C -0.77937 1.341951 -0.397805 1.5 0 1.5 
z
" id="mf0acb7dc5f" style="stroke:#f2cc8e;"/>
    </defs>
    <g clip-path="url(#p5f2a59f157)">
     <use style="fill:#f2cc8e;stroke:#f2cc8e;" x="56.412273" xlink:href="#mf0acb7dc5f" y="186.142349"/>
     <use style="fill:#f2cc8e;stroke:#f2cc8e;" x="76.158377" xlink:href="#mf0acb7dc5f" y="185.534661"/>
     <use style="fill:#f2cc8e;stroke:#f2cc8e;" x="95.904481" xlink:href="#mf0acb7dc5f" y="183.961039"/>
     <use style="fill:#f2cc8e;stroke:#f2cc8e;" x="115.650584" xlink:href="#mf0acb7dc5f" y="171.325045"/>
     <use style="fill:#f2cc8e;stroke:#f2cc8e;" x="135.396688" xlink:href="#mf0acb7dc5f" y="163.443391"/>
     <use style="fill:#f2cc8e;stroke:#f2cc8e;" x="155.142792" xlink:href="#mf0acb7dc5f" y="147.978101"/>
     <use style="fill:#f2cc8e;stroke:#f2cc8e;" x="174.888896" xlink:href="#mf0acb7dc5f" y="146.094491"/>
     <use style="fill:#f2cc8e;stroke:#f2cc8e;" x="194.635" xlink:href="#mf0acb7dc5f" y="125.930777"/>
     <use style="fill:#f2cc8e;stroke:#f2cc8e;" x="214.381104" xlink:href="#mf0acb7dc5f" y="113.135452"/>
     <use style="fill:#f2cc8e;stroke:#f2cc8e;" x="234.127208" xlink:href="#mf0acb7dc5f" y="108.372321"/>
     <use style="fill:#f2cc8e;stroke:#f2cc8e;" x="253.873312" xlink:href="#mf0acb7dc5f" y="103.933939"/>
     <use style="fill:#f2cc8e;stroke:#f2cc8e;" x="273.619416" xlink:href="#mf0acb7dc5f" y="93.506193"/>
     <use style="fill:#f2cc8e;stroke:#f2cc8e;" x="293.365519" xlink:href="#mf0acb7dc5f" y="82.498831"/>
     <use style="fill:#f2cc8e;stroke:#f2cc8e;" x="313.111623" xlink:href="#mf0acb7dc5f" y="64.787583"/>
     <use style="fill:#f2cc8e;stroke:#f2cc8e;" x="332.857727" xlink:href="#mf0acb7dc5f" y="42.248078"/>
    </g>
   </g>
   <g id="patch_3">
    <path d="M 42.59 241.72 
L 42.59 13.32 
" style="fill:none;stroke:#000000;stroke-linecap:square;stroke-linejoin:miter;stroke-width:0.8;"/>
   </g>
   <g id="patch_4">
    <path d="M 346.68 241.72 
L 346.68 13.32 
" style="fill:none;stroke:#000000;stroke-linecap:square;stroke-linejoin:miter;stroke-width:0.8;"/>
   </g>
   <g id="patch_5">
    <path d="M 42.59 241.72 
L 346.68 241.72 
" style="fill:none;stroke:#000000;stroke-linecap:square;stroke-linejoin:miter;stroke-width:0.8;"/>
   </g>
   <g id="patch_6">
    <path d="M 42.59 13.32 
L 346.68 13.32 
" style="fill:none;stroke:#000000;stroke-linecap:square;stroke-linejoin:miter;stroke-width:0.8;"/>
   </g>
   <g id="legend_1">
    <g id="patch_7">
     <path d="M 50.99 58.1475 
L 119.58125 58.1475 
Q 121.98125 58.1475 121.98125 55.7475 
L 121.98125 21.72 
Q 121.98125 19.32 119.58125 19.32 
L 50.99 19.32 
Q 48.59 19.32 48.59 21.72 
L 48.59 55.7475 
Q 48.59 58.1475 50.99 58.1475 
z
" style="fill:#ffffff;opacity:0.8;stroke:#cccccc;stroke-linejoin:miter;"/>
    </g>
    <g id="line2d_17">
     <path d="M 53.39 29.038125 
L 77.39 29.038125 
" style="fill:none;stroke:#df7a5e;stroke-linecap:square;stroke-width:1.5;"/>
    </g>
    <g id="line2d_18">
     <g>
      <use style="fill:#df7a5e;stroke:#df7a5e;stroke-linejoin:bevel;" x="65.39" xlink:href="#m85d39f5fb0" y="29.038125"/>
     </g>
    </g>
    <g id="text_17">
     <!-- NIS+ -->
     <defs>
      <path d="M 9.8125 72.90625 
L 23.09375 72.90625 
L 55.421875 11.921875 
L 55.421875 72.90625 
L 64.984375 72.90625 
L 64.984375 0 
L 51.703125 0 
L 19.390625 60.984375 
L 19.390625 0 
L 9.8125 0 
z
" id="DejaVuSans-4e"/>
      <path d="M 9.8125 72.90625 
L 19.671875 72.90625 
L 19.671875 0 
L 9.8125 0 
z
" id="DejaVuSans-49"/>
      <path d="M 53.515625 70.515625 
L 53.515625 60.890625 
Q 47.90625 63.578125 42.921875 64.890625 
Q 37.9375 66.21875 33.296875 66.21875 
Q 25.25 66.21875 20.875 63.09375 
Q 16.5 59.96875 16.5 54.203125 
Q 16.5 49.359375 19.40625 46.890625 
Q 22.3125 44.4375 30.421875 42.921875 
L 36.375 41.703125 
Q 47.40625 39.59375 52.65625 34.296875 
Q 57.90625 29 57.90625 20.125 
Q 57.90625 9.515625 50.796875 4.046875 
Q 43.703125 -1.421875 29.984375 -1.421875 
Q 24.8125 -1.421875 18.96875 -0.25 
Q 13.140625 0.921875 6.890625 3.21875 
L 6.890625 13.375 
Q 12.890625 10.015625 18.65625 8.296875 
Q 24.421875 6.59375 29.984375 6.59375 
Q 38.421875 6.59375 43.015625 9.90625 
Q 47.609375 13.234375 47.609375 19.390625 
Q 47.609375 24.75 44.3125 27.78125 
Q 41.015625 30.8125 33.5 32.328125 
L 27.484375 33.5 
Q 16.453125 35.6875 11.515625 40.375 
Q 6.59375 45.0625 6.59375 53.421875 
Q 6.59375 63.09375 13.40625 68.65625 
Q 20.21875 74.21875 32.171875 74.21875 
Q 37.3125 74.21875 42.625 73.28125 
Q 47.953125 72.359375 53.515625 70.515625 
z
" id="DejaVuSans-53"/>
      <path d="M 46 62.703125 
L 46 35.5 
L 73.1875 35.5 
L 73.1875 27.203125 
L 46 27.203125 
L 46 0 
L 37.796875 0 
L 37.796875 27.203125 
L 10.59375 27.203125 
L 10.59375 35.5 
L 37.796875 35.5 
L 37.796875 62.703125 
z
" id="DejaVuSans-2b"/>
     </defs>
     <g transform="translate(86.99 33.238125)scale(0.12 -0.12)">
      <use xlink:href="#DejaVuSans-4e"/>
      <use x="74.804688" xlink:href="#DejaVuSans-49"/>
      <use x="104.296875" xlink:href="#DejaVuSans-53"/>
      <use x="167.773438" xlink:href="#DejaVuSans-2b"/>
     </g>
    </g>
    <g id="line2d_19">
     <path d="M 53.39 46.651875 
L 77.39 46.651875 
" style="fill:none;stroke:#f2cc8e;stroke-linecap:square;stroke-width:1.5;"/>
    </g>
    <g id="line2d_20">
     <g>
      <use style="fill:#f2cc8e;stroke:#f2cc8e;" x="65.39" xlink:href="#mf0acb7dc5f" y="46.651875"/>
     </g>
    </g>
    <g id="text_18">
     <!-- NIS -->
     <g transform="translate(86.99 50.851875)scale(0.12 -0.12)">
      <use xlink:href="#DejaVuSans-4e"/>
      <use x="74.804688" xlink:href="#DejaVuSans-49"/>
      <use x="104.296875" xlink:href="#DejaVuSans-53"/>
     </g>
    </g>
   </g>
  </g>
 </g>
 <defs>
  <clipPath id="p5f2a59f157">
   <rect height="228.4" width="304.09" x="42.59" y="13.32"/>
  </clipPath>
 </defs>
</svg>
