<?xml version="1.0" encoding="utf-8" standalone="no"?>
<!DOCTYPE svg PUBLIC "-//W3C//DTD SVG 1.1//EN"
  "http://www.w3.org/Graphics/SVG/1.1/DTD/svg11.dtd">
<svg xmlns:xlink="http://www.w3.org/1999/xlink" width="432pt" height="288pt" viewBox="0 0 432 288" xmlns="http://www.w3.org/2000/svg" version="1.1">
 <metadata>
  <rdf:RDF xmlns:dc="http://purl.org/dc/elements/1.1/" xmlns:cc="http://creativecommons.org/ns#" xmlns:rdf="http://www.w3.org/1999/02/22-rdf-syntax-ns#">
   <cc:Work>
    <dc:type rdf:resource="http://purl.org/dc/dcmitype/StillImage"/>
    <dc:date>2023-08-08T22:31:40.389274</dc:date>
    <dc:format>image/svg+xml</dc:format>
    <dc:creator>
     <cc:Agent>
      <dc:title>Matplotlib v3.5.1, https://matplotlib.org/</dc:title>
     </cc:Agent>
    </dc:creator>
   </cc:Work>
  </rdf:RDF>
 </metadata>
 <defs>
  <style type="text/css">*{stroke-linejoin: round; stroke-linecap: butt}</style>
 </defs>
 <g id="figure_1">
  <g id="patch_1">
   <path d="M 0 288 
L 432 288 
L 432 0 
L 0 0 
L 0 288 
z
" style="fill: none"/>
  </g>
  <g id="axes_1">
   <g id="patch_2">
    <path d="M 55.51875 237.5 
L 378.325 237.5 
L 378.325 14.8 
L 55.51875 14.8 
z
" style="fill: #ffffff"/>
   </g>
   <g id="patch_3">
    <path d="M 70.191761 1190.161111 
L 92.765625 1190.161111 
L 92.765625 100.779575 
L 70.191761 100.779575 
z
" clip-path="url(#p25ed2e5d49)" style="fill: #df7a5e; stroke: #ffffff; stroke-linejoin: miter"/>
   </g>
   <g id="patch_4">
    <path d="M 115.339489 1190.161111 
L 137.913352 1190.161111 
L 137.913352 90.660041 
L 115.339489 90.660041 
z
" clip-path="url(#p25ed2e5d49)" style="fill: #df7a5e; stroke: #ffffff; stroke-linejoin: miter"/>
   </g>
   <g id="patch_5">
    <path d="M 160.487216 1190.161111 
L 183.06108 1190.161111 
L 183.06108 86.535967 
L 160.487216 86.535967 
z
" clip-path="url(#p25ed2e5d49)" style="fill: #df7a5e; stroke: #ffffff; stroke-linejoin: miter"/>
   </g>
   <g id="patch_6">
    <path d="M 205.634943 1190.161111 
L 228.208807 1190.161111 
L 228.208807 80.785185 
L 205.634943 80.785185 
z
" clip-path="url(#p25ed2e5d49)" style="fill: #df7a5e; stroke: #ffffff; stroke-linejoin: miter"/>
   </g>
   <g id="patch_7">
    <path d="M 250.78267 1190.161111 
L 273.356534 1190.161111 
L 273.356534 78.723148 
L 250.78267 78.723148 
z
" clip-path="url(#p25ed2e5d49)" style="fill: #df7a5e; stroke: #ffffff; stroke-linejoin: miter"/>
   </g>
   <g id="patch_8">
    <path d="M 295.930398 1190.161111 
L 318.504261 1190.161111 
L 318.504261 66.990157 
L 295.930398 66.990157 
z
" clip-path="url(#p25ed2e5d49)" style="fill: #df7a5e; stroke: #ffffff; stroke-linejoin: miter"/>
   </g>
   <g id="patch_9">
    <path d="M 341.078125 1190.161111 
L 363.651989 1190.161111 
L 363.651989 64.288889 
L 341.078125 64.288889 
z
" clip-path="url(#p25ed2e5d49)" style="fill: #df7a5e; stroke: #ffffff; stroke-linejoin: miter"/>
   </g>
   <g id="matplotlib.axis_1">
    <g id="xtick_1">
     <g id="line2d_1">
      <defs>
       <path id="m85bf868a32" d="M 0 0 
L 0 3.5 
" style="stroke: #000000; stroke-width: 0.8"/>
      </defs>
      <g>
       <use xlink:href="#m85bf868a32" x="81.478693" y="237.5" style="stroke: #000000; stroke-width: 0.8"/>
      </g>
     </g>
     <g id="text_1">
      <!-- 0 -->
      <g transform="translate(78.297443 252.098437)scale(0.1 -0.1)">
       <defs>
        <path id="DejaVuSans-30" d="M 2034 4250 
Q 1547 4250 1301 3770 
Q 1056 3291 1056 2328 
Q 1056 1369 1301 889 
Q 1547 409 2034 409 
Q 2525 409 2770 889 
Q 3016 1369 3016 2328 
Q 3016 3291 2770 3770 
Q 2525 4250 2034 4250 
z
M 2034 4750 
Q 2819 4750 3233 4129 
Q 3647 3509 3647 2328 
Q 3647 1150 3233 529 
Q 2819 -91 2034 -91 
Q 1250 -91 836 529 
Q 422 1150 422 2328 
Q 422 3509 836 4129 
Q 1250 4750 2034 4750 
z
" transform="scale(0.015625)"/>
       </defs>
       <use xlink:href="#DejaVuSans-30"/>
      </g>
     </g>
    </g>
    <g id="xtick_2">
     <g id="line2d_2">
      <g>
       <use xlink:href="#m85bf868a32" x="126.62642" y="237.5" style="stroke: #000000; stroke-width: 0.8"/>
      </g>
     </g>
     <g id="text_2">
      <!-- 0.001 -->
      <g transform="translate(112.312358 252.098437)scale(0.1 -0.1)">
       <defs>
        <path id="DejaVuSans-2e" d="M 684 794 
L 1344 794 
L 1344 0 
L 684 0 
L 684 794 
z
" transform="scale(0.015625)"/>
        <path id="DejaVuSans-31" d="M 794 531 
L 1825 531 
L 1825 4091 
L 703 3866 
L 703 4441 
L 1819 4666 
L 2450 4666 
L 2450 531 
L 3481 531 
L 3481 0 
L 794 0 
L 794 531 
z
" transform="scale(0.015625)"/>
       </defs>
       <use xlink:href="#DejaVuSans-30"/>
       <use xlink:href="#DejaVuSans-2e" x="63.623047"/>
       <use xlink:href="#DejaVuSans-30" x="95.410156"/>
       <use xlink:href="#DejaVuSans-30" x="159.033203"/>
       <use xlink:href="#DejaVuSans-31" x="222.65625"/>
      </g>
     </g>
    </g>
    <g id="xtick_3">
     <g id="line2d_3">
      <g>
       <use xlink:href="#m85bf868a32" x="171.774148" y="237.5" style="stroke: #000000; stroke-width: 0.8"/>
      </g>
     </g>
     <g id="text_3">
      <!-- 0.002 -->
      <g transform="translate(157.460085 252.098437)scale(0.1 -0.1)">
       <defs>
        <path id="DejaVuSans-32" d="M 1228 531 
L 3431 531 
L 3431 0 
L 469 0 
L 469 531 
Q 828 903 1448 1529 
Q 2069 2156 2228 2338 
Q 2531 2678 2651 2914 
Q 2772 3150 2772 3378 
Q 2772 3750 2511 3984 
Q 2250 4219 1831 4219 
Q 1534 4219 1204 4116 
Q 875 4013 500 3803 
L 500 4441 
Q 881 4594 1212 4672 
Q 1544 4750 1819 4750 
Q 2544 4750 2975 4387 
Q 3406 4025 3406 3419 
Q 3406 3131 3298 2873 
Q 3191 2616 2906 2266 
Q 2828 2175 2409 1742 
Q 1991 1309 1228 531 
z
" transform="scale(0.015625)"/>
       </defs>
       <use xlink:href="#DejaVuSans-30"/>
       <use xlink:href="#DejaVuSans-2e" x="63.623047"/>
       <use xlink:href="#DejaVuSans-30" x="95.410156"/>
       <use xlink:href="#DejaVuSans-30" x="159.033203"/>
       <use xlink:href="#DejaVuSans-32" x="222.65625"/>
      </g>
     </g>
    </g>
    <g id="xtick_4">
     <g id="line2d_4">
      <g>
       <use xlink:href="#m85bf868a32" x="216.921875" y="237.5" style="stroke: #000000; stroke-width: 0.8"/>
      </g>
     </g>
     <g id="text_4">
      <!-- 0.005 -->
      <g transform="translate(202.607812 252.098437)scale(0.1 -0.1)">
       <defs>
        <path id="DejaVuSans-35" d="M 691 4666 
L 3169 4666 
L 3169 4134 
L 1269 4134 
L 1269 2991 
Q 1406 3038 1543 3061 
Q 1681 3084 1819 3084 
Q 2600 3084 3056 2656 
Q 3513 2228 3513 1497 
Q 3513 744 3044 326 
Q 2575 -91 1722 -91 
Q 1428 -91 1123 -41 
Q 819 9 494 109 
L 494 744 
Q 775 591 1075 516 
Q 1375 441 1709 441 
Q 2250 441 2565 725 
Q 2881 1009 2881 1497 
Q 2881 1984 2565 2268 
Q 2250 2553 1709 2553 
Q 1456 2553 1204 2497 
Q 953 2441 691 2322 
L 691 4666 
z
" transform="scale(0.015625)"/>
       </defs>
       <use xlink:href="#DejaVuSans-30"/>
       <use xlink:href="#DejaVuSans-2e" x="63.623047"/>
       <use xlink:href="#DejaVuSans-30" x="95.410156"/>
       <use xlink:href="#DejaVuSans-30" x="159.033203"/>
       <use xlink:href="#DejaVuSans-35" x="222.65625"/>
      </g>
     </g>
    </g>
    <g id="xtick_5">
     <g id="line2d_5">
      <g>
       <use xlink:href="#m85bf868a32" x="262.069602" y="237.5" style="stroke: #000000; stroke-width: 0.8"/>
      </g>
     </g>
     <g id="text_5">
      <!-- 0.008 -->
      <g transform="translate(247.75554 252.098437)scale(0.1 -0.1)">
       <defs>
        <path id="DejaVuSans-38" d="M 2034 2216 
Q 1584 2216 1326 1975 
Q 1069 1734 1069 1313 
Q 1069 891 1326 650 
Q 1584 409 2034 409 
Q 2484 409 2743 651 
Q 3003 894 3003 1313 
Q 3003 1734 2745 1975 
Q 2488 2216 2034 2216 
z
M 1403 2484 
Q 997 2584 770 2862 
Q 544 3141 544 3541 
Q 544 4100 942 4425 
Q 1341 4750 2034 4750 
Q 2731 4750 3128 4425 
Q 3525 4100 3525 3541 
Q 3525 3141 3298 2862 
Q 3072 2584 2669 2484 
Q 3125 2378 3379 2068 
Q 3634 1759 3634 1313 
Q 3634 634 3220 271 
Q 2806 -91 2034 -91 
Q 1263 -91 848 271 
Q 434 634 434 1313 
Q 434 1759 690 2068 
Q 947 2378 1403 2484 
z
M 1172 3481 
Q 1172 3119 1398 2916 
Q 1625 2713 2034 2713 
Q 2441 2713 2670 2916 
Q 2900 3119 2900 3481 
Q 2900 3844 2670 4047 
Q 2441 4250 2034 4250 
Q 1625 4250 1398 4047 
Q 1172 3844 1172 3481 
z
" transform="scale(0.015625)"/>
       </defs>
       <use xlink:href="#DejaVuSans-30"/>
       <use xlink:href="#DejaVuSans-2e" x="63.623047"/>
       <use xlink:href="#DejaVuSans-30" x="95.410156"/>
       <use xlink:href="#DejaVuSans-30" x="159.033203"/>
       <use xlink:href="#DejaVuSans-38" x="222.65625"/>
      </g>
     </g>
    </g>
    <g id="xtick_6">
     <g id="line2d_6">
      <g>
       <use xlink:href="#m85bf868a32" x="307.21733" y="237.5" style="stroke: #000000; stroke-width: 0.8"/>
      </g>
     </g>
     <g id="text_6">
      <!-- 0.01 -->
      <g transform="translate(296.084517 252.098437)scale(0.1 -0.1)">
       <use xlink:href="#DejaVuSans-30"/>
       <use xlink:href="#DejaVuSans-2e" x="63.623047"/>
       <use xlink:href="#DejaVuSans-30" x="95.410156"/>
       <use xlink:href="#DejaVuSans-31" x="159.033203"/>
      </g>
     </g>
    </g>
    <g id="xtick_7">
     <g id="line2d_7">
      <g>
       <use xlink:href="#m85bf868a32" x="352.365057" y="237.5" style="stroke: #000000; stroke-width: 0.8"/>
      </g>
     </g>
     <g id="text_7">
      <!-- 0.012 -->
      <g transform="translate(338.050994 252.098437)scale(0.1 -0.1)">
       <use xlink:href="#DejaVuSans-30"/>
       <use xlink:href="#DejaVuSans-2e" x="63.623047"/>
       <use xlink:href="#DejaVuSans-30" x="95.410156"/>
       <use xlink:href="#DejaVuSans-31" x="159.033203"/>
       <use xlink:href="#DejaVuSans-32" x="222.65625"/>
      </g>
     </g>
    </g>
    <g id="text_8">
     <!-- $\delta_{max}$ -->
     <g transform="translate(200.646875 269.575781)scale(0.15 -0.15)">
      <defs>
       <path id="DejaVuSans-Oblique-3b4" d="M 3472 4053 
Q 3197 4272 2450 4272 
Q 1659 4272 1588 3906 
Q 1531 3619 2328 3469 
Q 2953 3353 3253 3003 
Q 3616 2581 3447 1716 
Q 3284 888 2763 400 
Q 2238 -91 1488 -91 
Q 741 -91 406 400 
Q 72 888 241 1747 
Q 363 2384 891 2900 
Q 1097 3100 1353 3213 
Q 913 3459 1000 3900 
Q 1166 4750 2544 4750 
Q 3234 4750 3566 4531 
L 3472 4053 
z
M 1753 3056 
Q 1525 2966 1306 2738 
Q 969 2384 847 1747 
Q 722 1113 919 756 
Q 1119 397 1584 397 
Q 2044 397 2381 759 
Q 2722 1122 2838 1716 
Q 2956 2338 2731 2638 
Q 2491 2959 2103 2994 
Q 1906 3013 1753 3056 
z
" transform="scale(0.015625)"/>
       <path id="DejaVuSans-Oblique-6d" d="M 5747 2113 
L 5338 0 
L 4763 0 
L 5166 2094 
Q 5191 2228 5203 2325 
Q 5216 2422 5216 2491 
Q 5216 2772 5059 2928 
Q 4903 3084 4622 3084 
Q 4203 3084 3875 2770 
Q 3547 2456 3450 1953 
L 3066 0 
L 2491 0 
L 2900 2094 
Q 2925 2209 2937 2307 
Q 2950 2406 2950 2484 
Q 2950 2769 2794 2926 
Q 2638 3084 2363 3084 
Q 1938 3084 1609 2770 
Q 1281 2456 1184 1953 
L 800 0 
L 225 0 
L 909 3500 
L 1484 3500 
L 1375 2956 
Q 1609 3263 1923 3423 
Q 2238 3584 2597 3584 
Q 2978 3584 3223 3384 
Q 3469 3184 3519 2828 
Q 3781 3197 4126 3390 
Q 4472 3584 4856 3584 
Q 5306 3584 5551 3325 
Q 5797 3066 5797 2591 
Q 5797 2488 5784 2364 
Q 5772 2241 5747 2113 
z
" transform="scale(0.015625)"/>
       <path id="DejaVuSans-Oblique-61" d="M 3438 1997 
L 3047 0 
L 2472 0 
L 2578 531 
Q 2325 219 2001 64 
Q 1678 -91 1281 -91 
Q 834 -91 548 182 
Q 263 456 263 884 
Q 263 1497 752 1853 
Q 1241 2209 2100 2209 
L 2900 2209 
L 2931 2363 
Q 2938 2388 2941 2417 
Q 2944 2447 2944 2509 
Q 2944 2788 2717 2942 
Q 2491 3097 2081 3097 
Q 1800 3097 1504 3025 
Q 1209 2953 897 2809 
L 997 3341 
Q 1322 3463 1633 3523 
Q 1944 3584 2234 3584 
Q 2853 3584 3176 3315 
Q 3500 3047 3500 2534 
Q 3500 2431 3484 2292 
Q 3469 2153 3438 1997 
z
M 2816 1759 
L 2241 1759 
Q 1534 1759 1195 1570 
Q 856 1381 856 984 
Q 856 709 1029 553 
Q 1203 397 1509 397 
Q 1978 397 2328 733 
Q 2678 1069 2791 1631 
L 2816 1759 
z
" transform="scale(0.015625)"/>
       <path id="DejaVuSans-Oblique-78" d="M 3841 3500 
L 2234 1784 
L 3219 0 
L 2559 0 
L 1819 1388 
L 531 0 
L -166 0 
L 1556 1844 
L 641 3500 
L 1300 3500 
L 1972 2234 
L 3144 3500 
L 3841 3500 
z
" transform="scale(0.015625)"/>
      </defs>
      <use xlink:href="#DejaVuSans-Oblique-3b4" transform="translate(0 0.78125)"/>
      <use xlink:href="#DejaVuSans-Oblique-6d" transform="translate(61.181641 -15.625)scale(0.7)"/>
      <use xlink:href="#DejaVuSans-Oblique-61" transform="translate(129.370117 -15.625)scale(0.7)"/>
      <use xlink:href="#DejaVuSans-Oblique-78" transform="translate(172.265625 -15.625)scale(0.7)"/>
     </g>
    </g>
   </g>
   <g id="matplotlib.axis_2">
    <g id="ytick_1">
     <g id="line2d_8">
      <defs>
       <path id="m5e09e6e999" d="M 0 0 
L -3.5 0 
" style="stroke: #000000; stroke-width: 0.8"/>
      </defs>
      <g>
       <use xlink:href="#m5e09e6e999" x="55.51875" y="200.383333" style="stroke: #000000; stroke-width: 0.8"/>
      </g>
     </g>
     <g id="text_9">
      <!-- 2.4 -->
      <g transform="translate(32.615625 204.182552)scale(0.1 -0.1)">
       <defs>
        <path id="DejaVuSans-34" d="M 2419 4116 
L 825 1625 
L 2419 1625 
L 2419 4116 
z
M 2253 4666 
L 3047 4666 
L 3047 1625 
L 3713 1625 
L 3713 1100 
L 3047 1100 
L 3047 0 
L 2419 0 
L 2419 1100 
L 313 1100 
L 313 1709 
L 2253 4666 
z
" transform="scale(0.015625)"/>
       </defs>
       <use xlink:href="#DejaVuSans-32"/>
       <use xlink:href="#DejaVuSans-2e" x="63.623047"/>
       <use xlink:href="#DejaVuSans-34" x="95.410156"/>
      </g>
     </g>
    </g>
    <g id="ytick_2">
     <g id="line2d_9">
      <g>
       <use xlink:href="#m5e09e6e999" x="55.51875" y="159.142593" style="stroke: #000000; stroke-width: 0.8"/>
      </g>
     </g>
     <g id="text_10">
      <!-- 2.5 -->
      <g transform="translate(32.615625 162.941811)scale(0.1 -0.1)">
       <use xlink:href="#DejaVuSans-32"/>
       <use xlink:href="#DejaVuSans-2e" x="63.623047"/>
       <use xlink:href="#DejaVuSans-35" x="95.410156"/>
      </g>
     </g>
    </g>
    <g id="ytick_3">
     <g id="line2d_10">
      <g>
       <use xlink:href="#m5e09e6e999" x="55.51875" y="117.901852" style="stroke: #000000; stroke-width: 0.8"/>
      </g>
     </g>
     <g id="text_11">
      <!-- 2.6 -->
      <g transform="translate(32.615625 121.701071)scale(0.1 -0.1)">
       <defs>
        <path id="DejaVuSans-36" d="M 2113 2584 
Q 1688 2584 1439 2293 
Q 1191 2003 1191 1497 
Q 1191 994 1439 701 
Q 1688 409 2113 409 
Q 2538 409 2786 701 
Q 3034 994 3034 1497 
Q 3034 2003 2786 2293 
Q 2538 2584 2113 2584 
z
M 3366 4563 
L 3366 3988 
Q 3128 4100 2886 4159 
Q 2644 4219 2406 4219 
Q 1781 4219 1451 3797 
Q 1122 3375 1075 2522 
Q 1259 2794 1537 2939 
Q 1816 3084 2150 3084 
Q 2853 3084 3261 2657 
Q 3669 2231 3669 1497 
Q 3669 778 3244 343 
Q 2819 -91 2113 -91 
Q 1303 -91 875 529 
Q 447 1150 447 2328 
Q 447 3434 972 4092 
Q 1497 4750 2381 4750 
Q 2619 4750 2861 4703 
Q 3103 4656 3366 4563 
z
" transform="scale(0.015625)"/>
       </defs>
       <use xlink:href="#DejaVuSans-32"/>
       <use xlink:href="#DejaVuSans-2e" x="63.623047"/>
       <use xlink:href="#DejaVuSans-36" x="95.410156"/>
      </g>
     </g>
    </g>
    <g id="ytick_4">
     <g id="line2d_11">
      <g>
       <use xlink:href="#m5e09e6e999" x="55.51875" y="76.661111" style="stroke: #000000; stroke-width: 0.8"/>
      </g>
     </g>
     <g id="text_12">
      <!-- 2.7 -->
      <g transform="translate(32.615625 80.46033)scale(0.1 -0.1)">
       <defs>
        <path id="DejaVuSans-37" d="M 525 4666 
L 3525 4666 
L 3525 4397 
L 1831 0 
L 1172 0 
L 2766 4134 
L 525 4134 
L 525 4666 
z
" transform="scale(0.015625)"/>
       </defs>
       <use xlink:href="#DejaVuSans-32"/>
       <use xlink:href="#DejaVuSans-2e" x="63.623047"/>
       <use xlink:href="#DejaVuSans-37" x="95.410156"/>
      </g>
     </g>
    </g>
    <g id="ytick_5">
     <g id="line2d_12">
      <g>
       <use xlink:href="#m5e09e6e999" x="55.51875" y="35.42037" style="stroke: #000000; stroke-width: 0.8"/>
      </g>
     </g>
     <g id="text_13">
      <!-- 2.8 -->
      <g transform="translate(32.615625 39.219589)scale(0.1 -0.1)">
       <use xlink:href="#DejaVuSans-32"/>
       <use xlink:href="#DejaVuSans-2e" x="63.623047"/>
       <use xlink:href="#DejaVuSans-38" x="95.410156"/>
      </g>
     </g>
    </g>
    <g id="text_14">
     <!-- $\Delta\mathcal{J}$ -->
     <g transform="translate(25.496094 136.05)rotate(-90)scale(0.15 -0.15)">
      <defs>
       <path id="DejaVuSans-394" d="M 2188 4044 
L 906 525 
L 3472 525 
L 2188 4044 
z
M 50 0 
L 1831 4666 
L 2547 4666 
L 4325 0 
L 50 0 
z
" transform="scale(0.015625)"/>
       <path id="STIXNonUnicode-Italic-e236" d="M 5024 4237 
L 4966 4083 
Q 4570 4083 4387 3929 
Q 4205 3776 4096 3411 
L 3290 595 
Q 3091 -83 2614 -425 
Q 2138 -768 1472 -768 
Q 922 -768 560 -537 
Q 198 -307 198 96 
Q 198 339 342 508 
Q 486 678 698 678 
Q 858 678 947 582 
Q 1037 486 1037 326 
Q 1037 179 921 60 
Q 806 -58 806 -96 
Q 806 -512 1510 -512 
Q 1702 -512 1859 -454 
Q 2016 -397 2141 -259 
Q 2266 -122 2349 -6 
Q 2432 109 2515 342 
Q 2598 576 2640 697 
Q 2682 819 2755 1100 
Q 2829 1382 2854 1472 
L 3450 3533 
Q 3475 3610 3475 3686 
Q 3475 3968 3059 3968 
Q 2099 3968 1491 2733 
L 1312 2733 
Q 1901 4237 3200 4237 
L 5024 4237 
z
" transform="scale(0.015625)"/>
      </defs>
      <use xlink:href="#DejaVuSans-394" transform="translate(0 0.09375)"/>
      <use xlink:href="#STIXNonUnicode-Italic-e236" transform="translate(68.408203 0.09375)"/>
     </g>
    </g>
   </g>
   <g id="line2d_13">
    <defs>
     <path id="mb02e267cf4" d="M 0 2 
C 0.530406 2 1.03916 1.789267 1.414214 1.414214 
C 1.789267 1.03916 2 0.530406 2 0 
C 2 -0.530406 1.789267 -1.03916 1.414214 -1.414214 
C 1.03916 -1.789267 0.530406 -2 0 -2 
C -0.530406 -2 -1.03916 -1.789267 -1.414214 -1.414214 
C -1.789267 -1.03916 -2 -0.530406 -2 0 
C -2 0.530406 -1.789267 1.03916 -1.414214 1.414214 
C -1.03916 1.789267 -0.530406 2 0 2 
z
" style="stroke: #3c405b"/>
    </defs>
    <g clip-path="url(#p25ed2e5d49)">
     <use xlink:href="#mb02e267cf4" x="81.478693" y="100.779575" style="fill: #3c405b; stroke: #3c405b"/>
     <use xlink:href="#mb02e267cf4" x="126.62642" y="90.660041" style="fill: #3c405b; stroke: #3c405b"/>
     <use xlink:href="#mb02e267cf4" x="171.774148" y="86.535967" style="fill: #3c405b; stroke: #3c405b"/>
     <use xlink:href="#mb02e267cf4" x="216.921875" y="80.785185" style="fill: #3c405b; stroke: #3c405b"/>
     <use xlink:href="#mb02e267cf4" x="262.069602" y="78.723148" style="fill: #3c405b; stroke: #3c405b"/>
     <use xlink:href="#mb02e267cf4" x="307.21733" y="66.990157" style="fill: #3c405b; stroke: #3c405b"/>
     <use xlink:href="#mb02e267cf4" x="352.365057" y="64.288889" style="fill: #3c405b; stroke: #3c405b"/>
    </g>
   </g>
   <g id="LineCollection_1">
    <path d="M 81.478693 163.100689 
L 81.478693 38.45846 
" clip-path="url(#p25ed2e5d49)" style="fill: none; stroke: #3c405b; stroke-width: 1.5"/>
    <path d="M 126.62642 158.540362 
L 126.62642 22.77972 
" clip-path="url(#p25ed2e5d49)" style="fill: none; stroke: #3c405b; stroke-width: 1.5"/>
    <path d="M 171.774148 136.024856 
L 171.774148 37.047078 
" clip-path="url(#p25ed2e5d49)" style="fill: none; stroke: #3c405b; stroke-width: 1.5"/>
    <path d="M 216.921875 110.150172 
L 216.921875 51.420198 
" clip-path="url(#p25ed2e5d49)" style="fill: none; stroke: #3c405b; stroke-width: 1.5"/>
    <path d="M 262.069602 108.088135 
L 262.069602 49.358161 
" clip-path="url(#p25ed2e5d49)" style="fill: none; stroke: #3c405b; stroke-width: 1.5"/>
    <path d="M 307.21733 99.204818 
L 307.21733 34.775497 
" clip-path="url(#p25ed2e5d49)" style="fill: none; stroke: #3c405b; stroke-width: 1.5"/>
    <path d="M 352.365057 93.982222 
L 352.365057 34.595556 
" clip-path="url(#p25ed2e5d49)" style="fill: none; stroke: #3c405b; stroke-width: 1.5"/>
   </g>
   <g id="line2d_14">
    <defs>
     <path id="m4b124f6ba5" d="M 5 0 
L -5 -0 
" style="stroke: #3c405b"/>
    </defs>
    <g clip-path="url(#p25ed2e5d49)">
     <use xlink:href="#m4b124f6ba5" x="81.478693" y="163.100689" style="fill: #3c405b; stroke: #3c405b"/>
     <use xlink:href="#m4b124f6ba5" x="126.62642" y="158.540362" style="fill: #3c405b; stroke: #3c405b"/>
     <use xlink:href="#m4b124f6ba5" x="171.774148" y="136.024856" style="fill: #3c405b; stroke: #3c405b"/>
     <use xlink:href="#m4b124f6ba5" x="216.921875" y="110.150172" style="fill: #3c405b; stroke: #3c405b"/>
     <use xlink:href="#m4b124f6ba5" x="262.069602" y="108.088135" style="fill: #3c405b; stroke: #3c405b"/>
     <use xlink:href="#m4b124f6ba5" x="307.21733" y="99.204818" style="fill: #3c405b; stroke: #3c405b"/>
     <use xlink:href="#m4b124f6ba5" x="352.365057" y="93.982222" style="fill: #3c405b; stroke: #3c405b"/>
    </g>
   </g>
   <g id="line2d_15">
    <g clip-path="url(#p25ed2e5d49)">
     <use xlink:href="#m4b124f6ba5" x="81.478693" y="38.45846" style="fill: #3c405b; stroke: #3c405b"/>
     <use xlink:href="#m4b124f6ba5" x="126.62642" y="22.77972" style="fill: #3c405b; stroke: #3c405b"/>
     <use xlink:href="#m4b124f6ba5" x="171.774148" y="37.047078" style="fill: #3c405b; stroke: #3c405b"/>
     <use xlink:href="#m4b124f6ba5" x="216.921875" y="51.420198" style="fill: #3c405b; stroke: #3c405b"/>
     <use xlink:href="#m4b124f6ba5" x="262.069602" y="49.358161" style="fill: #3c405b; stroke: #3c405b"/>
     <use xlink:href="#m4b124f6ba5" x="307.21733" y="34.775497" style="fill: #3c405b; stroke: #3c405b"/>
     <use xlink:href="#m4b124f6ba5" x="352.365057" y="34.595556" style="fill: #3c405b; stroke: #3c405b"/>
    </g>
   </g>
   <g id="line2d_16">
    <path d="M 81.478693 100.779575 
L 126.62642 90.660041 
L 171.774148 86.535967 
L 216.921875 80.785185 
L 262.069602 78.723148 
L 307.21733 66.990157 
L 352.365057 64.288889 
" clip-path="url(#p25ed2e5d49)" style="fill: none; stroke: #3c405b; stroke-width: 1.5; stroke-linecap: square"/>
   </g>
   <g id="patch_10">
    <path d="M 55.51875 237.5 
L 55.51875 14.8 
" style="fill: none; stroke: #000000; stroke-width: 0.8; stroke-linejoin: miter; stroke-linecap: square"/>
   </g>
   <g id="patch_11">
    <path d="M 378.325 237.5 
L 378.325 14.8 
" style="fill: none; stroke: #000000; stroke-width: 0.8; stroke-linejoin: miter; stroke-linecap: square"/>
   </g>
   <g id="patch_12">
    <path d="M 55.51875 237.5 
L 378.325 237.5 
" style="fill: none; stroke: #000000; stroke-width: 0.8; stroke-linejoin: miter; stroke-linecap: square"/>
   </g>
   <g id="patch_13">
    <path d="M 55.51875 14.8 
L 378.325 14.8 
" style="fill: none; stroke: #000000; stroke-width: 0.8; stroke-linejoin: miter; stroke-linecap: square"/>
   </g>
   <g id="legend_1">
    <g id="patch_14">
     <path d="M 63.91875 42.01375 
L 118.15875 42.01375 
Q 120.55875 42.01375 120.55875 39.61375 
L 120.55875 23.2 
Q 120.55875 20.8 118.15875 20.8 
L 63.91875 20.8 
Q 61.51875 20.8 61.51875 23.2 
L 61.51875 39.61375 
Q 61.51875 42.01375 63.91875 42.01375 
z
" style="fill: #ffffff; opacity: 0.8; stroke: #cccccc; stroke-linejoin: miter"/>
    </g>
    <g id="LineCollection_2">
     <path d="M 78.31875 36.518125 
L 78.31875 24.518125 
" style="fill: none; stroke: #3c405b; stroke-width: 1.5"/>
    </g>
    <g id="line2d_17">
     <g>
      <use xlink:href="#m4b124f6ba5" x="78.31875" y="36.518125" style="fill: #3c405b; stroke: #3c405b"/>
     </g>
    </g>
    <g id="line2d_18">
     <g>
      <use xlink:href="#m4b124f6ba5" x="78.31875" y="24.518125" style="fill: #3c405b; stroke: #3c405b"/>
     </g>
    </g>
    <g id="line2d_19">
     <path d="M 66.31875 30.518125 
L 90.31875 30.518125 
" style="fill: none; stroke: #3c405b; stroke-width: 1.5; stroke-linecap: square"/>
    </g>
    <g id="line2d_20"/>
    <g id="text_15">
     <!-- $\Delta\mathcal{J}$ -->
     <g transform="translate(99.91875 34.718125)scale(0.12 -0.12)">
      <use xlink:href="#DejaVuSans-394" transform="translate(0 0.09375)"/>
      <use xlink:href="#STIXNonUnicode-Italic-e236" transform="translate(68.408203 0.09375)"/>
     </g>
    </g>
   </g>
  </g>
  <g id="axes_2">
   <g id="matplotlib.axis_3">
    <g id="ytick_6">
     <g id="line2d_21">
      <defs>
       <path id="m9b684cc5af" d="M 0 0 
L 3.5 0 
" style="stroke: #000000; stroke-width: 0.8"/>
      </defs>
      <g>
       <use xlink:href="#m9b684cc5af" x="378.325" y="237.5" style="stroke: #000000; stroke-width: 0.8"/>
      </g>
     </g>
     <g id="text_16">
      <!-- 0.0 -->
      <g transform="translate(385.325 241.299219)scale(0.1 -0.1)">
       <use xlink:href="#DejaVuSans-30"/>
       <use xlink:href="#DejaVuSans-2e" x="63.623047"/>
       <use xlink:href="#DejaVuSans-30" x="95.410156"/>
      </g>
     </g>
    </g>
    <g id="ytick_7">
     <g id="line2d_22">
      <g>
       <use xlink:href="#m9b684cc5af" x="378.325" y="200.383333" style="stroke: #000000; stroke-width: 0.8"/>
      </g>
     </g>
     <g id="text_17">
      <!-- 0.1 -->
      <g transform="translate(385.325 204.182552)scale(0.1 -0.1)">
       <use xlink:href="#DejaVuSans-30"/>
       <use xlink:href="#DejaVuSans-2e" x="63.623047"/>
       <use xlink:href="#DejaVuSans-31" x="95.410156"/>
      </g>
     </g>
    </g>
    <g id="ytick_8">
     <g id="line2d_23">
      <g>
       <use xlink:href="#m9b684cc5af" x="378.325" y="163.266667" style="stroke: #000000; stroke-width: 0.8"/>
      </g>
     </g>
     <g id="text_18">
      <!-- 0.2 -->
      <g transform="translate(385.325 167.065885)scale(0.1 -0.1)">
       <use xlink:href="#DejaVuSans-30"/>
       <use xlink:href="#DejaVuSans-2e" x="63.623047"/>
       <use xlink:href="#DejaVuSans-32" x="95.410156"/>
      </g>
     </g>
    </g>
    <g id="ytick_9">
     <g id="line2d_24">
      <g>
       <use xlink:href="#m9b684cc5af" x="378.325" y="126.15" style="stroke: #000000; stroke-width: 0.8"/>
      </g>
     </g>
     <g id="text_19">
      <!-- 0.3 -->
      <g transform="translate(385.325 129.949219)scale(0.1 -0.1)">
       <defs>
        <path id="DejaVuSans-33" d="M 2597 2516 
Q 3050 2419 3304 2112 
Q 3559 1806 3559 1356 
Q 3559 666 3084 287 
Q 2609 -91 1734 -91 
Q 1441 -91 1130 -33 
Q 819 25 488 141 
L 488 750 
Q 750 597 1062 519 
Q 1375 441 1716 441 
Q 2309 441 2620 675 
Q 2931 909 2931 1356 
Q 2931 1769 2642 2001 
Q 2353 2234 1838 2234 
L 1294 2234 
L 1294 2753 
L 1863 2753 
Q 2328 2753 2575 2939 
Q 2822 3125 2822 3475 
Q 2822 3834 2567 4026 
Q 2313 4219 1838 4219 
Q 1578 4219 1281 4162 
Q 984 4106 628 3988 
L 628 4550 
Q 988 4650 1302 4700 
Q 1616 4750 1894 4750 
Q 2613 4750 3031 4423 
Q 3450 4097 3450 3541 
Q 3450 3153 3228 2886 
Q 3006 2619 2597 2516 
z
" transform="scale(0.015625)"/>
       </defs>
       <use xlink:href="#DejaVuSans-30"/>
       <use xlink:href="#DejaVuSans-2e" x="63.623047"/>
       <use xlink:href="#DejaVuSans-33" x="95.410156"/>
      </g>
     </g>
    </g>
    <g id="ytick_10">
     <g id="line2d_25">
      <g>
       <use xlink:href="#m9b684cc5af" x="378.325" y="89.033333" style="stroke: #000000; stroke-width: 0.8"/>
      </g>
     </g>
     <g id="text_20">
      <!-- 0.4 -->
      <g transform="translate(385.325 92.832552)scale(0.1 -0.1)">
       <use xlink:href="#DejaVuSans-30"/>
       <use xlink:href="#DejaVuSans-2e" x="63.623047"/>
       <use xlink:href="#DejaVuSans-34" x="95.410156"/>
      </g>
     </g>
    </g>
    <g id="ytick_11">
     <g id="line2d_26">
      <g>
       <use xlink:href="#m9b684cc5af" x="378.325" y="51.916667" style="stroke: #000000; stroke-width: 0.8"/>
      </g>
     </g>
     <g id="text_21">
      <!-- 0.5 -->
      <g transform="translate(385.325 55.715885)scale(0.1 -0.1)">
       <use xlink:href="#DejaVuSans-30"/>
       <use xlink:href="#DejaVuSans-2e" x="63.623047"/>
       <use xlink:href="#DejaVuSans-35" x="95.410156"/>
      </g>
     </g>
    </g>
    <g id="ytick_12">
     <g id="line2d_27">
      <g>
       <use xlink:href="#m9b684cc5af" x="378.325" y="14.8" style="stroke: #000000; stroke-width: 0.8"/>
      </g>
     </g>
     <g id="text_22">
      <!-- 0.6 -->
      <g transform="translate(385.325 18.599219)scale(0.1 -0.1)">
       <use xlink:href="#DejaVuSans-30"/>
       <use xlink:href="#DejaVuSans-2e" x="63.623047"/>
       <use xlink:href="#DejaVuSans-36" x="95.410156"/>
      </g>
     </g>
    </g>
    <g id="text_23">
     <!-- $MAE$ -->
     <g transform="translate(416.625781 142.5)rotate(-90)scale(0.15 -0.15)">
      <defs>
       <path id="DejaVuSans-Oblique-4d" d="M 1081 4666 
L 2028 4666 
L 2572 1522 
L 4378 4666 
L 5350 4666 
L 4441 0 
L 3828 0 
L 4622 4091 
L 2791 897 
L 2175 897 
L 1581 4103 
L 788 0 
L 172 0 
L 1081 4666 
z
" transform="scale(0.015625)"/>
       <path id="DejaVuSans-Oblique-41" d="M 2356 4666 
L 3072 4666 
L 3938 0 
L 3278 0 
L 3084 1197 
L 984 1197 
L 325 0 
L -341 0 
L 2356 4666 
z
M 2584 4044 
L 1275 1722 
L 2988 1722 
L 2584 4044 
z
" transform="scale(0.015625)"/>
       <path id="DejaVuSans-Oblique-45" d="M 1081 4666 
L 4031 4666 
L 3928 4134 
L 1606 4134 
L 1338 2753 
L 3566 2753 
L 3463 2222 
L 1234 2222 
L 909 531 
L 3284 531 
L 3181 0 
L 172 0 
L 1081 4666 
z
" transform="scale(0.015625)"/>
      </defs>
      <use xlink:href="#DejaVuSans-Oblique-4d" transform="translate(0 0.09375)"/>
      <use xlink:href="#DejaVuSans-Oblique-41" transform="translate(86.279297 0.09375)"/>
      <use xlink:href="#DejaVuSans-Oblique-45" transform="translate(154.6875 0.09375)"/>
     </g>
    </g>
   </g>
   <g id="line2d_28">
    <defs>
     <path id="made1e0afa2" d="M 0 -2.5 
L -0.561285 -0.772542 
L -2.377641 -0.772542 
L -0.908178 0.295085 
L -1.469463 2.022542 
L -0 0.954915 
L 1.469463 2.022542 
L 0.908178 0.295085 
L 2.377641 -0.772542 
L 0.561285 -0.772542 
z
" style="stroke: #82b29a; stroke-linejoin: bevel"/>
    </defs>
    <g clip-path="url(#p25ed2e5d49)">
     <use xlink:href="#made1e0afa2" x="81.478693" y="178.855667" style="fill: #82b29a; stroke: #82b29a; stroke-linejoin: bevel"/>
     <use xlink:href="#made1e0afa2" x="126.62642" y="176.851367" style="fill: #82b29a; stroke: #82b29a; stroke-linejoin: bevel"/>
     <use xlink:href="#made1e0afa2" x="171.774148" y="162.153167" style="fill: #82b29a; stroke: #82b29a; stroke-linejoin: bevel"/>
     <use xlink:href="#made1e0afa2" x="216.921875" y="149.5335" style="fill: #82b29a; stroke: #82b29a; stroke-linejoin: bevel"/>
     <use xlink:href="#made1e0afa2" x="262.069602" y="137.656167" style="fill: #82b29a; stroke: #82b29a; stroke-linejoin: bevel"/>
     <use xlink:href="#made1e0afa2" x="307.21733" y="135.800333" style="fill: #82b29a; stroke: #82b29a; stroke-linejoin: bevel"/>
     <use xlink:href="#made1e0afa2" x="352.365057" y="137.285" style="fill: #82b29a; stroke: #82b29a; stroke-linejoin: bevel"/>
    </g>
   </g>
   <g id="LineCollection_3">
    <path d="M 81.478693 205.356967 
L 81.478693 152.354367 
" clip-path="url(#p25ed2e5d49)" style="fill: none; stroke: #82b29a; stroke-width: 1.5"/>
    <path d="M 126.62642 179.8207 
L 126.62642 173.882033 
" clip-path="url(#p25ed2e5d49)" style="fill: none; stroke: #82b29a; stroke-width: 1.5"/>
    <path d="M 171.774148 164.825567 
L 171.774148 159.480767 
" clip-path="url(#p25ed2e5d49)" style="fill: none; stroke: #82b29a; stroke-width: 1.5"/>
    <path d="M 216.921875 151.9832 
L 216.921875 147.0838 
" clip-path="url(#p25ed2e5d49)" style="fill: none; stroke: #82b29a; stroke-width: 1.5"/>
    <path d="M 262.069602 146.823983 
L 262.069602 128.48835 
" clip-path="url(#p25ed2e5d49)" style="fill: none; stroke: #82b29a; stroke-width: 1.5"/>
    <path d="M 307.21733 141.367833 
L 307.21733 130.232833 
" clip-path="url(#p25ed2e5d49)" style="fill: none; stroke: #82b29a; stroke-width: 1.5"/>
    <path d="M 352.365057 146.230117 
L 352.365057 128.339883 
" clip-path="url(#p25ed2e5d49)" style="fill: none; stroke: #82b29a; stroke-width: 1.5"/>
   </g>
   <g id="line2d_29">
    <defs>
     <path id="m9a47246ebc" d="M 5 0 
L -5 -0 
" style="stroke: #82b29a"/>
    </defs>
    <g clip-path="url(#p25ed2e5d49)">
     <use xlink:href="#m9a47246ebc" x="81.478693" y="205.356967" style="fill: #82b29a; stroke: #82b29a"/>
     <use xlink:href="#m9a47246ebc" x="126.62642" y="179.8207" style="fill: #82b29a; stroke: #82b29a"/>
     <use xlink:href="#m9a47246ebc" x="171.774148" y="164.825567" style="fill: #82b29a; stroke: #82b29a"/>
     <use xlink:href="#m9a47246ebc" x="216.921875" y="151.9832" style="fill: #82b29a; stroke: #82b29a"/>
     <use xlink:href="#m9a47246ebc" x="262.069602" y="146.823983" style="fill: #82b29a; stroke: #82b29a"/>
     <use xlink:href="#m9a47246ebc" x="307.21733" y="141.367833" style="fill: #82b29a; stroke: #82b29a"/>
     <use xlink:href="#m9a47246ebc" x="352.365057" y="146.230117" style="fill: #82b29a; stroke: #82b29a"/>
    </g>
   </g>
   <g id="line2d_30">
    <g clip-path="url(#p25ed2e5d49)">
     <use xlink:href="#m9a47246ebc" x="81.478693" y="152.354367" style="fill: #82b29a; stroke: #82b29a"/>
     <use xlink:href="#m9a47246ebc" x="126.62642" y="173.882033" style="fill: #82b29a; stroke: #82b29a"/>
     <use xlink:href="#m9a47246ebc" x="171.774148" y="159.480767" style="fill: #82b29a; stroke: #82b29a"/>
     <use xlink:href="#m9a47246ebc" x="216.921875" y="147.0838" style="fill: #82b29a; stroke: #82b29a"/>
     <use xlink:href="#m9a47246ebc" x="262.069602" y="128.48835" style="fill: #82b29a; stroke: #82b29a"/>
     <use xlink:href="#m9a47246ebc" x="307.21733" y="130.232833" style="fill: #82b29a; stroke: #82b29a"/>
     <use xlink:href="#m9a47246ebc" x="352.365057" y="128.339883" style="fill: #82b29a; stroke: #82b29a"/>
    </g>
   </g>
   <g id="line2d_31">
    <path d="M 81.478693 178.855667 
L 126.62642 176.851367 
L 171.774148 162.153167 
L 216.921875 149.5335 
L 262.069602 137.656167 
L 307.21733 135.800333 
L 352.365057 137.285 
" clip-path="url(#p25ed2e5d49)" style="fill: none; stroke-dasharray: 9.6,2.4,1.5,2.4; stroke-dashoffset: 0; stroke: #82b29a; stroke-width: 1.5"/>
   </g>
   <g id="patch_15">
    <path d="M 55.51875 237.5 
L 55.51875 14.8 
" style="fill: none; stroke: #000000; stroke-width: 0.8; stroke-linejoin: miter; stroke-linecap: square"/>
   </g>
   <g id="patch_16">
    <path d="M 378.325 237.5 
L 378.325 14.8 
" style="fill: none; stroke: #000000; stroke-width: 0.8; stroke-linejoin: miter; stroke-linecap: square"/>
   </g>
   <g id="patch_17">
    <path d="M 55.51875 237.5 
L 378.325 237.5 
" style="fill: none; stroke: #000000; stroke-width: 0.8; stroke-linejoin: miter; stroke-linecap: square"/>
   </g>
   <g id="patch_18">
    <path d="M 55.51875 14.8 
L 378.325 14.8 
" style="fill: none; stroke: #000000; stroke-width: 0.8; stroke-linejoin: miter; stroke-linecap: square"/>
   </g>
   <g id="legend_2">
    <g id="patch_19">
     <path d="M 305.38 42.01375 
L 369.925 42.01375 
Q 372.325 42.01375 372.325 39.61375 
L 372.325 23.2 
Q 372.325 20.8 369.925 20.8 
L 305.38 20.8 
Q 302.98 20.8 302.98 23.2 
L 302.98 39.61375 
Q 302.98 42.01375 305.38 42.01375 
z
" style="fill: #ffffff; opacity: 0.8; stroke: #cccccc; stroke-linejoin: miter"/>
    </g>
    <g id="LineCollection_4">
     <path d="M 319.78 36.518125 
L 319.78 24.518125 
" style="fill: none; stroke: #82b29a; stroke-width: 1.5"/>
    </g>
    <g id="line2d_32">
     <g>
      <use xlink:href="#m9a47246ebc" x="319.78" y="36.518125" style="fill: #82b29a; stroke: #82b29a"/>
     </g>
    </g>
    <g id="line2d_33">
     <g>
      <use xlink:href="#m9a47246ebc" x="319.78" y="24.518125" style="fill: #82b29a; stroke: #82b29a"/>
     </g>
    </g>
    <g id="line2d_34">
     <path d="M 307.78 30.518125 
L 331.78 30.518125 
" style="fill: none; stroke-dasharray: 9.6,2.4,1.5,2.4; stroke-dashoffset: 0; stroke: #82b29a; stroke-width: 1.5"/>
    </g>
    <g id="line2d_35"/>
    <g id="text_24">
     <!-- MAE -->
     <g transform="translate(341.38 34.718125)scale(0.12 -0.12)">
      <defs>
       <path id="DejaVuSans-4d" d="M 628 4666 
L 1569 4666 
L 2759 1491 
L 3956 4666 
L 4897 4666 
L 4897 0 
L 4281 0 
L 4281 4097 
L 3078 897 
L 2444 897 
L 1241 4097 
L 1241 0 
L 628 0 
L 628 4666 
z
" transform="scale(0.015625)"/>
       <path id="DejaVuSans-41" d="M 2188 4044 
L 1331 1722 
L 3047 1722 
L 2188 4044 
z
M 1831 4666 
L 2547 4666 
L 4325 0 
L 3669 0 
L 3244 1197 
L 1141 1197 
L 716 0 
L 50 0 
L 1831 4666 
z
" transform="scale(0.015625)"/>
       <path id="DejaVuSans-45" d="M 628 4666 
L 3578 4666 
L 3578 4134 
L 1259 4134 
L 1259 2753 
L 3481 2753 
L 3481 2222 
L 1259 2222 
L 1259 531 
L 3634 531 
L 3634 0 
L 628 0 
L 628 4666 
z
" transform="scale(0.015625)"/>
      </defs>
      <use xlink:href="#DejaVuSans-4d"/>
      <use xlink:href="#DejaVuSans-41" x="86.279297"/>
      <use xlink:href="#DejaVuSans-45" x="154.6875"/>
     </g>
    </g>
   </g>
  </g>
 </g>
 <defs>
  <clipPath id="p25ed2e5d49">
   <rect x="55.51875" y="14.8" width="322.80625" height="222.7"/>
  </clipPath>
 </defs>
</svg>
