<?xml version="1.0" encoding="utf-8" standalone="no"?>
<!DOCTYPE svg PUBLIC "-//W3C//DTD SVG 1.1//EN"
  "http://www.w3.org/Graphics/SVG/1.1/DTD/svg11.dtd">
<svg xmlns:xlink="http://www.w3.org/1999/xlink" width="432pt" height="288pt" viewBox="0 0 432 288" xmlns="http://www.w3.org/2000/svg" version="1.1">
 <metadata>
  <rdf:RDF xmlns:dc="http://purl.org/dc/elements/1.1/" xmlns:cc="http://creativecommons.org/ns#" xmlns:rdf="http://www.w3.org/1999/02/22-rdf-syntax-ns#">
   <cc:Work>
    <dc:type rdf:resource="http://purl.org/dc/dcmitype/StillImage"/>
    <dc:date>2023-08-08T22:27:15.851510</dc:date>
    <dc:format>image/svg+xml</dc:format>
    <dc:creator>
     <cc:Agent>
      <dc:title>Matplotlib v3.5.1, https://matplotlib.org/</dc:title>
     </cc:Agent>
    </dc:creator>
   </cc:Work>
  </rdf:RDF>
 </metadata>
 <defs>
  <style type="text/css">*{stroke-linejoin: round; stroke-linecap: butt}</style>
 </defs>
 <g id="figure_1">
  <g id="patch_1">
   <path d="M 0 288 
L 432 288 
L 432 0 
L 0 0 
L 0 288 
z
" style="fill: none"/>
  </g>
  <g id="axes_1">
   <g id="patch_2">
    <path d="M 55.51875 241.2 
L 379.2 241.2 
L 379.2 14.8 
L 55.51875 14.8 
z
" style="fill: #ffffff"/>
   </g>
   <g id="PolyCollection_1">
    <defs>
     <path id="m2c62ba68cc" d="M 70.231534 -57.090909 
L 70.231534 -57.090909 
L 77.587926 -57.090909 
L 84.944318 -57.090909 
L 92.30071 -57.090909 
L 99.657102 -57.090909 
L 107.013494 -57.090909 
L 114.369886 -57.090909 
L 121.726278 -57.090909 
L 129.08267 -57.090909 
L 136.439063 -57.090909 
L 143.795455 -57.090909 
L 151.151847 -57.090909 
L 158.508239 -57.090909 
L 165.864631 -57.090909 
L 173.221023 -57.090909 
L 180.577415 -57.090909 
L 187.933807 -57.090909 
L 195.290199 -57.090909 
L 202.646591 -57.090909 
L 210.002983 -57.090909 
L 217.359375 -57.090909 
L 224.715767 -57.090909 
L 232.072159 -57.090909 
L 239.428551 -57.090909 
L 246.784943 -57.090909 
L 254.141335 -57.090909 
L 261.497727 -57.090909 
L 268.854119 -57.090909 
L 276.210511 -57.090909 
L 283.566903 -57.090909 
L 290.923295 -57.090909 
L 298.279688 -57.090909 
L 305.63608 -57.090909 
L 312.992472 -57.090909 
L 320.348864 -57.090909 
L 327.705256 -57.090909 
L 335.061648 -57.090909 
L 342.41804 -57.090909 
L 349.774432 -57.090909 
L 357.130824 -57.090909 
L 364.487216 -57.090909 
L 364.487216 -57.090909 
L 364.487216 -57.090909 
L 357.130824 -57.090909 
L 349.774432 -57.090909 
L 342.41804 -57.090909 
L 335.061648 -57.090909 
L 327.705256 -57.090909 
L 320.348864 -57.090909 
L 312.992472 -57.090909 
L 305.63608 -57.090909 
L 298.279688 -57.090909 
L 290.923295 -57.090909 
L 283.566903 -57.090909 
L 276.210511 -57.090909 
L 268.854119 -57.090909 
L 261.497727 -57.090909 
L 254.141335 -57.090909 
L 246.784943 -57.090909 
L 239.428551 -57.090909 
L 232.072159 -57.090909 
L 224.715767 -57.090909 
L 217.359375 -57.090909 
L 210.002983 -57.090909 
L 202.646591 -57.090909 
L 195.290199 -57.090909 
L 187.933807 -57.090909 
L 180.577415 -57.090909 
L 173.221023 -57.090909 
L 165.864631 -57.090909 
L 158.508239 -57.090909 
L 151.151847 -57.090909 
L 143.795455 -57.090909 
L 136.439063 -57.090909 
L 129.08267 -57.090909 
L 121.726278 -57.090909 
L 114.369886 -57.090909 
L 107.013494 -57.090909 
L 99.657102 -57.090909 
L 92.30071 -57.090909 
L 84.944318 -57.090909 
L 77.587926 -57.090909 
L 70.231534 -57.090909 
z
" style="stroke: #df7a5e; stroke-opacity: 0.25"/>
    </defs>
    <g clip-path="url(#p2fa5f25393)">
     <use xlink:href="#m2c62ba68cc" x="0" y="288" style="fill: #df7a5e; fill-opacity: 0.25; stroke: #df7a5e; stroke-opacity: 0.25"/>
    </g>
   </g>
   <g id="PolyCollection_2">
    <defs>
     <path id="mece01e8d33" d="M 70.231534 -103.797905 
L 70.231534 -86.193196 
L 77.587926 -141.49734 
L 84.944318 -139.281092 
L 92.30071 -149.02133 
L 99.657102 -139.867156 
L 107.013494 -144.917031 
L 114.369886 -141.254878 
L 121.726278 -151.020546 
L 129.08267 -144.49763 
L 136.439063 -147.271034 
L 143.795455 -145.792951 
L 151.151847 -151.231884 
L 158.508239 -142.345845 
L 165.864631 -144.642038 
L 173.221023 -143.339201 
L 180.577415 -145.356591 
L 187.933807 -147.685499 
L 195.290199 -146.906891 
L 202.646591 -145.116957 
L 210.002983 -147.781089 
L 217.359375 -150.879128 
L 224.715767 -156.342744 
L 232.072159 -149.737057 
L 239.428551 -151.659238 
L 246.784943 -152.277202 
L 254.141335 -159.76718 
L 261.497727 -153.525554 
L 268.854119 -155.302018 
L 276.210511 -155.031457 
L 283.566903 -155.840402 
L 290.923295 -149.740236 
L 298.279688 -159.110003 
L 305.63608 -156.884321 
L 312.992472 -149.073134 
L 320.348864 -154.955549 
L 327.705256 -152.304732 
L 335.061648 -154.130722 
L 342.41804 -151.25468 
L 349.774432 -153.100229 
L 357.130824 -153.725861 
L 364.487216 -156.48605 
L 364.487216 -167.949342 
L 364.487216 -167.949342 
L 357.130824 -167.226565 
L 349.774432 -169.77789 
L 342.41804 -167.716481 
L 335.061648 -168.229031 
L 327.705256 -168.824355 
L 320.348864 -168.241823 
L 312.992472 -163.962075 
L 305.63608 -171.581121 
L 298.279688 -171.469582 
L 290.923295 -164.586303 
L 283.566903 -168.49852 
L 276.210511 -170.575583 
L 268.854119 -171.664187 
L 261.497727 -169.719813 
L 254.141335 -175.352079 
L 246.784943 -171.672052 
L 239.428551 -158.342821 
L 232.072159 -154.508348 
L 224.715767 -160.550681 
L 217.359375 -159.696472 
L 210.002983 -151.293631 
L 202.646591 -149.148444 
L 195.290199 -153.465557 
L 187.933807 -150.202075 
L 180.577415 -154.538978 
L 173.221023 -151.434043 
L 165.864631 -150.225406 
L 158.508239 -146.611479 
L 151.151847 -156.651292 
L 143.795455 -154.014492 
L 136.439063 -156.652298 
L 129.08267 -151.29126 
L 121.726278 -160.744681 
L 114.369886 -150.065749 
L 107.013494 -156.25258 
L 99.657102 -143.260029 
L 92.30071 -151.193567 
L 84.944318 -144.065614 
L 77.587926 -144.607704 
L 70.231534 -103.797905 
z
" style="stroke: #3c405b; stroke-opacity: 0.25"/>
    </defs>
    <g clip-path="url(#p2fa5f25393)">
     <use xlink:href="#mece01e8d33" x="0" y="288" style="fill: #3c405b; fill-opacity: 0.25; stroke: #3c405b; stroke-opacity: 0.25"/>
    </g>
   </g>
   <g id="PolyCollection_3">
    <defs>
     <path id="m48b01ae0aa" d="M 70.231534 -110.429698 
L 70.231534 -106.963347 
L 77.587926 -147.929556 
L 84.944318 -148.485347 
L 92.30071 -154.554578 
L 99.657102 -147.865471 
L 107.013494 -150.136721 
L 114.369886 -150.206657 
L 121.726278 -158.835041 
L 129.08267 -151.350765 
L 136.439063 -153.666626 
L 143.795455 -150.985056 
L 151.151847 -155.788646 
L 158.508239 -149.061855 
L 165.864631 -153.110781 
L 173.221023 -148.182684 
L 180.577415 -153.180479 
L 187.933807 -155.143375 
L 195.290199 -154.170256 
L 202.646591 -153.751574 
L 210.002983 -153.894929 
L 217.359375 -158.206082 
L 224.715767 -162.383068 
L 232.072159 -155.233882 
L 239.428551 -154.947371 
L 246.784943 -157.941219 
L 254.141335 -163.444929 
L 261.497727 -159.193691 
L 268.854119 -157.088343 
L 276.210511 -157.27767 
L 283.566903 -162.202939 
L 290.923295 -153.897402 
L 298.279688 -159.803461 
L 305.63608 -160.887339 
L 312.992472 -153.118679 
L 320.348864 -158.187519 
L 327.705256 -153.389032 
L 335.061648 -160.463364 
L 342.41804 -151.119448 
L 349.774432 -156.817533 
L 357.130824 -154.358796 
L 364.487216 -155.810432 
L 364.487216 -165.08876 
L 364.487216 -165.08876 
L 357.130824 -167.134003 
L 349.774432 -168.805222 
L 342.41804 -162.210048 
L 335.061648 -169.841817 
L 327.705256 -161.705145 
L 320.348864 -168.387871 
L 312.992472 -162.677339 
L 305.63608 -169.67074 
L 298.279688 -165.779919 
L 290.923295 -164.110626 
L 283.566903 -169.16143 
L 276.210511 -165.020735 
L 268.854119 -171.071632 
L 261.497727 -167.977003 
L 254.141335 -171.578558 
L 246.784943 -173.823657 
L 239.428551 -160.955017 
L 232.072159 -158.384742 
L 224.715767 -166.388616 
L 217.359375 -161.984014 
L 210.002983 -156.68766 
L 202.646591 -157.79518 
L 195.290199 -158.151939 
L 187.933807 -158.212169 
L 180.577415 -163.357894 
L 173.221023 -155.297113 
L 165.864631 -160.406207 
L 158.508239 -153.305976 
L 151.151847 -163.889064 
L 143.795455 -159.562434 
L 136.439063 -158.762207 
L 129.08267 -156.656219 
L 121.726278 -163.926425 
L 114.369886 -156.077276 
L 107.013494 -158.001957 
L 99.657102 -148.602814 
L 92.30071 -157.668984 
L 84.944318 -153.008492 
L 77.587926 -150.123015 
L 70.231534 -110.429698 
z
" style="stroke: #82b29a; stroke-opacity: 0.25"/>
    </defs>
    <g clip-path="url(#p2fa5f25393)">
     <use xlink:href="#m48b01ae0aa" x="0" y="288" style="fill: #82b29a; fill-opacity: 0.25; stroke: #82b29a; stroke-opacity: 0.25"/>
    </g>
   </g>
   <g id="PolyCollection_4">
    <defs>
     <path id="mc5b137107a" d="M 70.231534 -189.743858 
L 70.231534 -178.620119 
L 77.587926 -228.728052 
L 84.944318 -230.847239 
L 92.30071 -241.320574 
L 99.657102 -233.387204 
L 107.013494 -234.276909 
L 114.369886 -233.544261 
L 121.726278 -241.556105 
L 129.08267 -228.875665 
L 136.439063 -235.615615 
L 143.795455 -230.765421 
L 151.151847 -237.159095 
L 158.508239 -230.056287 
L 165.864631 -237.185753 
L 173.221023 -233.19 
L 180.577415 -232.536224 
L 187.933807 -238.552795 
L 195.290199 -233.743722 
L 202.646591 -236.242125 
L 210.002983 -237.714591 
L 217.359375 -240.221564 
L 224.715767 -248.491375 
L 232.072159 -240.015898 
L 239.428551 -246.764567 
L 246.784943 -244.812755 
L 254.141335 -246.636819 
L 261.497727 -238.976291 
L 268.854119 -236.540633 
L 276.210511 -242.595457 
L 283.566903 -243.934101 
L 290.923295 -239.924896 
L 298.279688 -240.862565 
L 305.63608 -243.231256 
L 312.992472 -232.895739 
L 320.348864 -238.79597 
L 327.705256 -236.474016 
L 335.061648 -244.02492 
L 342.41804 -233.142153 
L 349.774432 -242.091056 
L 357.130824 -234.131612 
L 364.487216 -237.558154 
L 364.487216 -248.104095 
L 364.487216 -248.104095 
L 357.130824 -247.746797 
L 349.774432 -251.947881 
L 342.41804 -247.416559 
L 335.061648 -255.757917 
L 327.705256 -251.384943 
L 320.348864 -258.046649 
L 312.992472 -245.929264 
L 305.63608 -254.994391 
L 298.279688 -252.088034 
L 290.923295 -249.936728 
L 283.566903 -251.752528 
L 276.210511 -254.906558 
L 268.854119 -257.326219 
L 261.497727 -255.935905 
L 254.141335 -261.778371 
L 246.784943 -262.909091 
L 239.428551 -248.932718 
L 232.072159 -245.023484 
L 224.715767 -252.443786 
L 217.359375 -247.212263 
L 210.002983 -244.787363 
L 202.646591 -241.588141 
L 195.290199 -240.19353 
L 187.933807 -243.883177 
L 180.577415 -239.072245 
L 173.221023 -239.945327 
L 165.864631 -243.946631 
L 158.508239 -233.414732 
L 151.151847 -244.963654 
L 143.795455 -236.920071 
L 136.439063 -240.335648 
L 129.08267 -239.875336 
L 121.726278 -245.649492 
L 114.369886 -244.631101 
L 107.013494 -238.50932 
L 99.657102 -237.663383 
L 92.30071 -248.14642 
L 84.944318 -236.758961 
L 77.587926 -231.773416 
L 70.231534 -189.743858 
z
" style="stroke: #dc143c; stroke-opacity: 0.25"/>
    </defs>
    <g clip-path="url(#p2fa5f25393)">
     <use xlink:href="#mc5b137107a" x="0" y="288" style="fill: #dc143c; fill-opacity: 0.25; stroke: #dc143c; stroke-opacity: 0.25"/>
    </g>
   </g>
   <g id="matplotlib.axis_1">
    <g id="xtick_1">
     <g id="line2d_1">
      <defs>
       <path id="maa90c6eeae" d="M 0 0 
L 0 3.5 
" style="stroke: #000000; stroke-width: 0.8"/>
      </defs>
      <g>
       <use xlink:href="#maa90c6eeae" x="70.231534" y="241.2" style="stroke: #000000; stroke-width: 0.8"/>
      </g>
     </g>
     <g id="text_1">
      <!-- 0.0 -->
      <g transform="translate(62.279972 255.798438)scale(0.1 -0.1)">
       <defs>
        <path id="DejaVuSans-30" d="M 2034 4250 
Q 1547 4250 1301 3770 
Q 1056 3291 1056 2328 
Q 1056 1369 1301 889 
Q 1547 409 2034 409 
Q 2525 409 2770 889 
Q 3016 1369 3016 2328 
Q 3016 3291 2770 3770 
Q 2525 4250 2034 4250 
z
M 2034 4750 
Q 2819 4750 3233 4129 
Q 3647 3509 3647 2328 
Q 3647 1150 3233 529 
Q 2819 -91 2034 -91 
Q 1250 -91 836 529 
Q 422 1150 422 2328 
Q 422 3509 836 4129 
Q 1250 4750 2034 4750 
z
" transform="scale(0.015625)"/>
        <path id="DejaVuSans-2e" d="M 684 794 
L 1344 794 
L 1344 0 
L 684 0 
L 684 794 
z
" transform="scale(0.015625)"/>
       </defs>
       <use xlink:href="#DejaVuSans-30"/>
       <use xlink:href="#DejaVuSans-2e" x="63.623047"/>
       <use xlink:href="#DejaVuSans-30" x="95.410156"/>
      </g>
     </g>
    </g>
    <g id="xtick_2">
     <g id="line2d_2">
      <g>
       <use xlink:href="#maa90c6eeae" x="107.013494" y="241.2" style="stroke: #000000; stroke-width: 0.8"/>
      </g>
     </g>
     <g id="text_2">
      <!-- 0.5 -->
      <g transform="translate(99.061932 255.798438)scale(0.1 -0.1)">
       <defs>
        <path id="DejaVuSans-35" d="M 691 4666 
L 3169 4666 
L 3169 4134 
L 1269 4134 
L 1269 2991 
Q 1406 3038 1543 3061 
Q 1681 3084 1819 3084 
Q 2600 3084 3056 2656 
Q 3513 2228 3513 1497 
Q 3513 744 3044 326 
Q 2575 -91 1722 -91 
Q 1428 -91 1123 -41 
Q 819 9 494 109 
L 494 744 
Q 775 591 1075 516 
Q 1375 441 1709 441 
Q 2250 441 2565 725 
Q 2881 1009 2881 1497 
Q 2881 1984 2565 2268 
Q 2250 2553 1709 2553 
Q 1456 2553 1204 2497 
Q 953 2441 691 2322 
L 691 4666 
z
" transform="scale(0.015625)"/>
       </defs>
       <use xlink:href="#DejaVuSans-30"/>
       <use xlink:href="#DejaVuSans-2e" x="63.623047"/>
       <use xlink:href="#DejaVuSans-35" x="95.410156"/>
      </g>
     </g>
    </g>
    <g id="xtick_3">
     <g id="line2d_3">
      <g>
       <use xlink:href="#maa90c6eeae" x="143.795455" y="241.2" style="stroke: #000000; stroke-width: 0.8"/>
      </g>
     </g>
     <g id="text_3">
      <!-- 1.0 -->
      <g transform="translate(135.843892 255.798438)scale(0.1 -0.1)">
       <defs>
        <path id="DejaVuSans-31" d="M 794 531 
L 1825 531 
L 1825 4091 
L 703 3866 
L 703 4441 
L 1819 4666 
L 2450 4666 
L 2450 531 
L 3481 531 
L 3481 0 
L 794 0 
L 794 531 
z
" transform="scale(0.015625)"/>
       </defs>
       <use xlink:href="#DejaVuSans-31"/>
       <use xlink:href="#DejaVuSans-2e" x="63.623047"/>
       <use xlink:href="#DejaVuSans-30" x="95.410156"/>
      </g>
     </g>
    </g>
    <g id="xtick_4">
     <g id="line2d_4">
      <g>
       <use xlink:href="#maa90c6eeae" x="180.577415" y="241.2" style="stroke: #000000; stroke-width: 0.8"/>
      </g>
     </g>
     <g id="text_4">
      <!-- 1.5 -->
      <g transform="translate(172.625852 255.798438)scale(0.1 -0.1)">
       <use xlink:href="#DejaVuSans-31"/>
       <use xlink:href="#DejaVuSans-2e" x="63.623047"/>
       <use xlink:href="#DejaVuSans-35" x="95.410156"/>
      </g>
     </g>
    </g>
    <g id="xtick_5">
     <g id="line2d_5">
      <g>
       <use xlink:href="#maa90c6eeae" x="217.359375" y="241.2" style="stroke: #000000; stroke-width: 0.8"/>
      </g>
     </g>
     <g id="text_5">
      <!-- 2.0 -->
      <g transform="translate(209.407813 255.798438)scale(0.1 -0.1)">
       <defs>
        <path id="DejaVuSans-32" d="M 1228 531 
L 3431 531 
L 3431 0 
L 469 0 
L 469 531 
Q 828 903 1448 1529 
Q 2069 2156 2228 2338 
Q 2531 2678 2651 2914 
Q 2772 3150 2772 3378 
Q 2772 3750 2511 3984 
Q 2250 4219 1831 4219 
Q 1534 4219 1204 4116 
Q 875 4013 500 3803 
L 500 4441 
Q 881 4594 1212 4672 
Q 1544 4750 1819 4750 
Q 2544 4750 2975 4387 
Q 3406 4025 3406 3419 
Q 3406 3131 3298 2873 
Q 3191 2616 2906 2266 
Q 2828 2175 2409 1742 
Q 1991 1309 1228 531 
z
" transform="scale(0.015625)"/>
       </defs>
       <use xlink:href="#DejaVuSans-32"/>
       <use xlink:href="#DejaVuSans-2e" x="63.623047"/>
       <use xlink:href="#DejaVuSans-30" x="95.410156"/>
      </g>
     </g>
    </g>
    <g id="xtick_6">
     <g id="line2d_6">
      <g>
       <use xlink:href="#maa90c6eeae" x="254.141335" y="241.2" style="stroke: #000000; stroke-width: 0.8"/>
      </g>
     </g>
     <g id="text_6">
      <!-- 2.5 -->
      <g transform="translate(246.189773 255.798438)scale(0.1 -0.1)">
       <use xlink:href="#DejaVuSans-32"/>
       <use xlink:href="#DejaVuSans-2e" x="63.623047"/>
       <use xlink:href="#DejaVuSans-35" x="95.410156"/>
      </g>
     </g>
    </g>
    <g id="xtick_7">
     <g id="line2d_7">
      <g>
       <use xlink:href="#maa90c6eeae" x="290.923295" y="241.2" style="stroke: #000000; stroke-width: 0.8"/>
      </g>
     </g>
     <g id="text_7">
      <!-- 3.0 -->
      <g transform="translate(282.971733 255.798438)scale(0.1 -0.1)">
       <defs>
        <path id="DejaVuSans-33" d="M 2597 2516 
Q 3050 2419 3304 2112 
Q 3559 1806 3559 1356 
Q 3559 666 3084 287 
Q 2609 -91 1734 -91 
Q 1441 -91 1130 -33 
Q 819 25 488 141 
L 488 750 
Q 750 597 1062 519 
Q 1375 441 1716 441 
Q 2309 441 2620 675 
Q 2931 909 2931 1356 
Q 2931 1769 2642 2001 
Q 2353 2234 1838 2234 
L 1294 2234 
L 1294 2753 
L 1863 2753 
Q 2328 2753 2575 2939 
Q 2822 3125 2822 3475 
Q 2822 3834 2567 4026 
Q 2313 4219 1838 4219 
Q 1578 4219 1281 4162 
Q 984 4106 628 3988 
L 628 4550 
Q 988 4650 1302 4700 
Q 1616 4750 1894 4750 
Q 2613 4750 3031 4423 
Q 3450 4097 3450 3541 
Q 3450 3153 3228 2886 
Q 3006 2619 2597 2516 
z
" transform="scale(0.015625)"/>
       </defs>
       <use xlink:href="#DejaVuSans-33"/>
       <use xlink:href="#DejaVuSans-2e" x="63.623047"/>
       <use xlink:href="#DejaVuSans-30" x="95.410156"/>
      </g>
     </g>
    </g>
    <g id="xtick_8">
     <g id="line2d_8">
      <g>
       <use xlink:href="#maa90c6eeae" x="327.705256" y="241.2" style="stroke: #000000; stroke-width: 0.8"/>
      </g>
     </g>
     <g id="text_8">
      <!-- 3.5 -->
      <g transform="translate(319.753693 255.798438)scale(0.1 -0.1)">
       <use xlink:href="#DejaVuSans-33"/>
       <use xlink:href="#DejaVuSans-2e" x="63.623047"/>
       <use xlink:href="#DejaVuSans-35" x="95.410156"/>
      </g>
     </g>
    </g>
    <g id="xtick_9">
     <g id="line2d_9">
      <g>
       <use xlink:href="#maa90c6eeae" x="364.487216" y="241.2" style="stroke: #000000; stroke-width: 0.8"/>
      </g>
     </g>
     <g id="text_9">
      <!-- 4.0 -->
      <g transform="translate(356.535653 255.798438)scale(0.1 -0.1)">
       <defs>
        <path id="DejaVuSans-34" d="M 2419 4116 
L 825 1625 
L 2419 1625 
L 2419 4116 
z
M 2253 4666 
L 3047 4666 
L 3047 1625 
L 3713 1625 
L 3713 1100 
L 3047 1100 
L 3047 0 
L 2419 0 
L 2419 1100 
L 313 1100 
L 313 1709 
L 2253 4666 
z
" transform="scale(0.015625)"/>
       </defs>
       <use xlink:href="#DejaVuSans-34"/>
       <use xlink:href="#DejaVuSans-2e" x="63.623047"/>
       <use xlink:href="#DejaVuSans-30" x="95.410156"/>
      </g>
     </g>
    </g>
    <g id="text_10">
     <!-- epoch -->
     <g transform="translate(194.517188 273.275781)scale(0.15 -0.15)">
      <defs>
       <path id="DejaVuSans-65" d="M 3597 1894 
L 3597 1613 
L 953 1613 
Q 991 1019 1311 708 
Q 1631 397 2203 397 
Q 2534 397 2845 478 
Q 3156 559 3463 722 
L 3463 178 
Q 3153 47 2828 -22 
Q 2503 -91 2169 -91 
Q 1331 -91 842 396 
Q 353 884 353 1716 
Q 353 2575 817 3079 
Q 1281 3584 2069 3584 
Q 2775 3584 3186 3129 
Q 3597 2675 3597 1894 
z
M 3022 2063 
Q 3016 2534 2758 2815 
Q 2500 3097 2075 3097 
Q 1594 3097 1305 2825 
Q 1016 2553 972 2059 
L 3022 2063 
z
" transform="scale(0.015625)"/>
       <path id="DejaVuSans-70" d="M 1159 525 
L 1159 -1331 
L 581 -1331 
L 581 3500 
L 1159 3500 
L 1159 2969 
Q 1341 3281 1617 3432 
Q 1894 3584 2278 3584 
Q 2916 3584 3314 3078 
Q 3713 2572 3713 1747 
Q 3713 922 3314 415 
Q 2916 -91 2278 -91 
Q 1894 -91 1617 61 
Q 1341 213 1159 525 
z
M 3116 1747 
Q 3116 2381 2855 2742 
Q 2594 3103 2138 3103 
Q 1681 3103 1420 2742 
Q 1159 2381 1159 1747 
Q 1159 1113 1420 752 
Q 1681 391 2138 391 
Q 2594 391 2855 752 
Q 3116 1113 3116 1747 
z
" transform="scale(0.015625)"/>
       <path id="DejaVuSans-6f" d="M 1959 3097 
Q 1497 3097 1228 2736 
Q 959 2375 959 1747 
Q 959 1119 1226 758 
Q 1494 397 1959 397 
Q 2419 397 2687 759 
Q 2956 1122 2956 1747 
Q 2956 2369 2687 2733 
Q 2419 3097 1959 3097 
z
M 1959 3584 
Q 2709 3584 3137 3096 
Q 3566 2609 3566 1747 
Q 3566 888 3137 398 
Q 2709 -91 1959 -91 
Q 1206 -91 779 398 
Q 353 888 353 1747 
Q 353 2609 779 3096 
Q 1206 3584 1959 3584 
z
" transform="scale(0.015625)"/>
       <path id="DejaVuSans-63" d="M 3122 3366 
L 3122 2828 
Q 2878 2963 2633 3030 
Q 2388 3097 2138 3097 
Q 1578 3097 1268 2742 
Q 959 2388 959 1747 
Q 959 1106 1268 751 
Q 1578 397 2138 397 
Q 2388 397 2633 464 
Q 2878 531 3122 666 
L 3122 134 
Q 2881 22 2623 -34 
Q 2366 -91 2075 -91 
Q 1284 -91 818 406 
Q 353 903 353 1747 
Q 353 2603 823 3093 
Q 1294 3584 2113 3584 
Q 2378 3584 2631 3529 
Q 2884 3475 3122 3366 
z
" transform="scale(0.015625)"/>
       <path id="DejaVuSans-68" d="M 3513 2113 
L 3513 0 
L 2938 0 
L 2938 2094 
Q 2938 2591 2744 2837 
Q 2550 3084 2163 3084 
Q 1697 3084 1428 2787 
Q 1159 2491 1159 1978 
L 1159 0 
L 581 0 
L 581 4863 
L 1159 4863 
L 1159 2956 
Q 1366 3272 1645 3428 
Q 1925 3584 2291 3584 
Q 2894 3584 3203 3211 
Q 3513 2838 3513 2113 
z
" transform="scale(0.015625)"/>
      </defs>
      <use xlink:href="#DejaVuSans-65"/>
      <use xlink:href="#DejaVuSans-70" x="61.523438"/>
      <use xlink:href="#DejaVuSans-6f" x="125"/>
      <use xlink:href="#DejaVuSans-63" x="186.181641"/>
      <use xlink:href="#DejaVuSans-68" x="241.162109"/>
     </g>
    </g>
    <g id="text_11">
     <!-- 1e5 -->
     <g transform="translate(360.321875 268.476562)scale(0.1 -0.1)">
      <use xlink:href="#DejaVuSans-31"/>
      <use xlink:href="#DejaVuSans-65" x="63.623047"/>
      <use xlink:href="#DejaVuSans-35" x="125.146484"/>
     </g>
    </g>
   </g>
   <g id="matplotlib.axis_2">
    <g id="ytick_1">
     <g id="line2d_10">
      <defs>
       <path id="m15a268a392" d="M 0 0 
L -3.5 0 
" style="stroke: #000000; stroke-width: 0.8"/>
      </defs>
      <g>
       <use xlink:href="#m15a268a392" x="55.51875" y="230.909091" style="stroke: #000000; stroke-width: 0.8"/>
      </g>
     </g>
     <g id="text_12">
      <!-- 0.0 -->
      <g transform="translate(32.615625 234.70831)scale(0.1 -0.1)">
       <use xlink:href="#DejaVuSans-30"/>
       <use xlink:href="#DejaVuSans-2e" x="63.623047"/>
       <use xlink:href="#DejaVuSans-30" x="95.410156"/>
      </g>
     </g>
    </g>
    <g id="ytick_2">
     <g id="line2d_11">
      <g>
       <use xlink:href="#m15a268a392" x="55.51875" y="196.015428" style="stroke: #000000; stroke-width: 0.8"/>
      </g>
     </g>
     <g id="text_13">
      <!-- 0.5 -->
      <g transform="translate(32.615625 199.814647)scale(0.1 -0.1)">
       <use xlink:href="#DejaVuSans-30"/>
       <use xlink:href="#DejaVuSans-2e" x="63.623047"/>
       <use xlink:href="#DejaVuSans-35" x="95.410156"/>
      </g>
     </g>
    </g>
    <g id="ytick_3">
     <g id="line2d_12">
      <g>
       <use xlink:href="#m15a268a392" x="55.51875" y="161.121765" style="stroke: #000000; stroke-width: 0.8"/>
      </g>
     </g>
     <g id="text_14">
      <!-- 1.0 -->
      <g transform="translate(32.615625 164.920984)scale(0.1 -0.1)">
       <use xlink:href="#DejaVuSans-31"/>
       <use xlink:href="#DejaVuSans-2e" x="63.623047"/>
       <use xlink:href="#DejaVuSans-30" x="95.410156"/>
      </g>
     </g>
    </g>
    <g id="ytick_4">
     <g id="line2d_13">
      <g>
       <use xlink:href="#m15a268a392" x="55.51875" y="126.228102" style="stroke: #000000; stroke-width: 0.8"/>
      </g>
     </g>
     <g id="text_15">
      <!-- 1.5 -->
      <g transform="translate(32.615625 130.027321)scale(0.1 -0.1)">
       <use xlink:href="#DejaVuSans-31"/>
       <use xlink:href="#DejaVuSans-2e" x="63.623047"/>
       <use xlink:href="#DejaVuSans-35" x="95.410156"/>
      </g>
     </g>
    </g>
    <g id="ytick_5">
     <g id="line2d_14">
      <g>
       <use xlink:href="#m15a268a392" x="55.51875" y="91.334439" style="stroke: #000000; stroke-width: 0.8"/>
      </g>
     </g>
     <g id="text_16">
      <!-- 2.0 -->
      <g transform="translate(32.615625 95.133658)scale(0.1 -0.1)">
       <use xlink:href="#DejaVuSans-32"/>
       <use xlink:href="#DejaVuSans-2e" x="63.623047"/>
       <use xlink:href="#DejaVuSans-30" x="95.410156"/>
      </g>
     </g>
    </g>
    <g id="ytick_6">
     <g id="line2d_15">
      <g>
       <use xlink:href="#m15a268a392" x="55.51875" y="56.440776" style="stroke: #000000; stroke-width: 0.8"/>
      </g>
     </g>
     <g id="text_17">
      <!-- 2.5 -->
      <g transform="translate(32.615625 60.239995)scale(0.1 -0.1)">
       <use xlink:href="#DejaVuSans-32"/>
       <use xlink:href="#DejaVuSans-2e" x="63.623047"/>
       <use xlink:href="#DejaVuSans-35" x="95.410156"/>
      </g>
     </g>
    </g>
    <g id="ytick_7">
     <g id="line2d_16">
      <g>
       <use xlink:href="#m15a268a392" x="55.51875" y="21.547113" style="stroke: #000000; stroke-width: 0.8"/>
      </g>
     </g>
     <g id="text_18">
      <!-- 3.0 -->
      <g transform="translate(32.615625 25.346331)scale(0.1 -0.1)">
       <use xlink:href="#DejaVuSans-33"/>
       <use xlink:href="#DejaVuSans-2e" x="63.623047"/>
       <use xlink:href="#DejaVuSans-30" x="95.410156"/>
      </g>
     </g>
    </g>
    <g id="text_19">
     <!-- $\Delta\mathcal{J}$ -->
     <g transform="translate(25.496094 137.9)rotate(-90)scale(0.15 -0.15)">
      <defs>
       <path id="DejaVuSans-394" d="M 2188 4044 
L 906 525 
L 3472 525 
L 2188 4044 
z
M 50 0 
L 1831 4666 
L 2547 4666 
L 4325 0 
L 50 0 
z
" transform="scale(0.015625)"/>
       <path id="STIXNonUnicode-Italic-e236" d="M 5024 4237 
L 4966 4083 
Q 4570 4083 4387 3929 
Q 4205 3776 4096 3411 
L 3290 595 
Q 3091 -83 2614 -425 
Q 2138 -768 1472 -768 
Q 922 -768 560 -537 
Q 198 -307 198 96 
Q 198 339 342 508 
Q 486 678 698 678 
Q 858 678 947 582 
Q 1037 486 1037 326 
Q 1037 179 921 60 
Q 806 -58 806 -96 
Q 806 -512 1510 -512 
Q 1702 -512 1859 -454 
Q 2016 -397 2141 -259 
Q 2266 -122 2349 -6 
Q 2432 109 2515 342 
Q 2598 576 2640 697 
Q 2682 819 2755 1100 
Q 2829 1382 2854 1472 
L 3450 3533 
Q 3475 3610 3475 3686 
Q 3475 3968 3059 3968 
Q 2099 3968 1491 2733 
L 1312 2733 
Q 1901 4237 3200 4237 
L 5024 4237 
z
" transform="scale(0.015625)"/>
      </defs>
      <use xlink:href="#DejaVuSans-394" transform="translate(0 0.09375)"/>
      <use xlink:href="#STIXNonUnicode-Italic-e236" transform="translate(68.408203 0.09375)"/>
     </g>
    </g>
   </g>
   <g id="line2d_17">
    <path d="M 70.231534 230.909091 
L 77.587926 230.909091 
L 84.944318 230.909091 
L 92.30071 230.909091 
L 99.657102 230.909091 
L 107.013494 230.909091 
L 114.369886 230.909091 
L 121.726278 230.909091 
L 129.08267 230.909091 
L 136.439063 230.909091 
L 143.795455 230.909091 
L 151.151847 230.909091 
L 158.508239 230.909091 
L 165.864631 230.909091 
L 173.221023 230.909091 
L 180.577415 230.909091 
L 187.933807 230.909091 
L 195.290199 230.909091 
L 202.646591 230.909091 
L 210.002983 230.909091 
L 217.359375 230.909091 
L 224.715767 230.909091 
L 232.072159 230.909091 
L 239.428551 230.909091 
L 246.784943 230.909091 
L 254.141335 230.909091 
L 261.497727 230.909091 
L 268.854119 230.909091 
L 276.210511 230.909091 
L 283.566903 230.909091 
L 290.923295 230.909091 
L 298.279688 230.909091 
L 305.63608 230.909091 
L 312.992472 230.909091 
L 320.348864 230.909091 
L 327.705256 230.909091 
L 335.061648 230.909091 
L 342.41804 230.909091 
L 349.774432 230.909091 
L 357.130824 230.909091 
L 364.487216 230.909091 
" clip-path="url(#p2fa5f25393)" style="fill: none; stroke: #df7a5e; stroke-width: 1.5; stroke-linecap: square"/>
   </g>
   <g id="line2d_18">
    <path d="M 70.231534 193.004449 
L 77.587926 144.947478 
L 84.944318 146.326647 
L 92.30071 137.892551 
L 99.657102 146.436408 
L 107.013494 137.415194 
L 114.369886 142.339686 
L 121.726278 132.117387 
L 129.08267 140.105555 
L 136.439063 136.038334 
L 143.795455 138.096279 
L 151.151847 134.058412 
L 158.508239 143.521338 
L 165.864631 140.566278 
L 173.221023 140.613378 
L 180.577415 138.052215 
L 187.933807 139.056213 
L 195.290199 137.813776 
L 202.646591 140.867299 
L 210.002983 138.46264 
L 217.359375 132.7122 
L 224.715767 129.553288 
L 232.072159 135.877297 
L 239.428551 132.99897 
L 246.784943 126.025373 
L 254.141335 120.440371 
L 261.497727 126.377317 
L 268.854119 124.516897 
L 276.210511 125.19648 
L 283.566903 125.830539 
L 290.923295 130.836731 
L 298.279688 122.710208 
L 305.63608 123.767279 
L 312.992472 131.482395 
L 320.348864 126.401314 
L 327.705256 127.435457 
L 335.061648 126.820124 
L 342.41804 128.514419 
L 349.774432 126.56094 
L 357.130824 127.523787 
L 364.487216 125.782304 
" clip-path="url(#p2fa5f25393)" style="fill: none; stroke: #3c405b; stroke-width: 1.5; stroke-linecap: square"/>
   </g>
   <g id="line2d_19">
    <path d="M 70.231534 179.303477 
L 77.587926 138.973715 
L 84.944318 137.25308 
L 92.30071 131.888219 
L 99.657102 139.765858 
L 107.013494 133.930661 
L 114.369886 134.858034 
L 121.726278 126.619267 
L 129.08267 133.996508 
L 136.439063 131.785584 
L 143.795455 132.726255 
L 151.151847 128.161145 
L 158.508239 136.816084 
L 165.864631 131.241506 
L 173.221023 136.260101 
L 180.577415 129.730813 
L 187.933807 131.322228 
L 195.290199 131.838902 
L 202.646591 132.226623 
L 210.002983 132.708706 
L 217.359375 127.904952 
L 224.715767 123.614158 
L 232.072159 131.190688 
L 239.428551 130.048806 
L 246.784943 122.117562 
L 254.141335 120.488257 
L 261.497727 124.414653 
L 268.854119 123.920013 
L 276.210511 126.850797 
L 283.566903 122.317816 
L 290.923295 128.995986 
L 298.279688 125.20831 
L 305.63608 122.720961 
L 312.992472 130.101991 
L 320.348864 124.712305 
L 327.705256 130.452912 
L 335.061648 122.84741 
L 342.41804 131.335252 
L 349.774432 125.188622 
L 357.130824 127.253601 
L 364.487216 127.550404 
" clip-path="url(#p2fa5f25393)" style="fill: none; stroke: #82b29a; stroke-width: 1.5; stroke-linecap: square"/>
   </g>
   <g id="line2d_20">
    <path d="M 70.231534 103.818012 
L 77.587926 57.749266 
L 84.944318 54.1969 
L 92.30071 43.266503 
L 99.657102 52.474707 
L 107.013494 51.606885 
L 114.369886 48.912319 
L 121.726278 44.397202 
L 129.08267 53.6245 
L 136.439063 50.024368 
L 143.795455 54.157254 
L 151.151847 46.938625 
L 158.508239 56.264491 
L 165.864631 47.433808 
L 173.221023 51.432337 
L 180.577415 52.195765 
L 187.933807 46.782014 
L 195.290199 51.031374 
L 202.646591 49.084867 
L 210.002983 46.749023 
L 217.359375 44.283087 
L 224.715767 37.532419 
L 232.072159 45.480309 
L 239.428551 40.151357 
L 246.784943 34.139077 
L 254.141335 33.792405 
L 261.497727 40.543902 
L 268.854119 41.066574 
L 276.210511 39.248993 
L 283.566903 40.156686 
L 290.923295 43.069188 
L 298.279688 41.5247 
L 305.63608 38.887177 
L 312.992472 48.587498 
L 320.348864 39.57869 
L 327.705256 44.07052 
L 335.061648 38.108581 
L 342.41804 47.720644 
L 349.774432 40.980531 
L 357.130824 47.060795 
L 364.487216 45.168876 
" clip-path="url(#p2fa5f25393)" style="fill: none; stroke: #dc143c; stroke-width: 1.5; stroke-linecap: square"/>
   </g>
   <g id="patch_3">
    <path d="M 55.51875 241.2 
L 55.51875 14.8 
" style="fill: none; stroke: #000000; stroke-width: 0.8; stroke-linejoin: miter; stroke-linecap: square"/>
   </g>
   <g id="patch_4">
    <path d="M 379.2 241.2 
L 379.2 14.8 
" style="fill: none; stroke: #000000; stroke-width: 0.8; stroke-linejoin: miter; stroke-linecap: square"/>
   </g>
   <g id="patch_5">
    <path d="M 55.51875 241.2 
L 379.2 241.2 
" style="fill: none; stroke: #000000; stroke-width: 0.8; stroke-linejoin: miter; stroke-linecap: square"/>
   </g>
   <g id="patch_6">
    <path d="M 55.51875 14.8 
L 379.2 14.8 
" style="fill: none; stroke: #000000; stroke-width: 0.8; stroke-linejoin: miter; stroke-linecap: square"/>
   </g>
   <g id="legend_1">
    <g id="patch_7">
     <path d="M 106.470937 123.472 
L 238.350937 123.472 
Q 240.750937 123.472 240.750937 121.072 
L 240.750937 51.712 
Q 240.750937 49.312 238.350937 49.312 
L 106.470937 49.312 
Q 104.070937 49.312 104.070937 51.712 
L 104.070937 121.072 
Q 104.070937 123.472 106.470937 123.472 
z
" style="fill: #ffffff; opacity: 0.8; stroke: #cccccc; stroke-linejoin: miter"/>
    </g>
    <g id="line2d_21">
     <path d="M 108.870937 59.032 
L 120.870937 59.032 
L 132.870937 59.032 
" style="fill: none; stroke: #df7a5e; stroke-width: 1.5; stroke-linecap: square"/>
    </g>
    <g id="text_20">
     <!-- $\Delta\mathcal{J}$ when $q=64$ -->
     <g transform="translate(142.470937 63.232)scale(0.12 -0.12)">
      <defs>
       <path id="DejaVuSans-20" transform="scale(0.015625)"/>
       <path id="DejaVuSans-77" d="M 269 3500 
L 844 3500 
L 1563 769 
L 2278 3500 
L 2956 3500 
L 3675 769 
L 4391 3500 
L 4966 3500 
L 4050 0 
L 3372 0 
L 2619 2869 
L 1863 0 
L 1184 0 
L 269 3500 
z
" transform="scale(0.015625)"/>
       <path id="DejaVuSans-6e" d="M 3513 2113 
L 3513 0 
L 2938 0 
L 2938 2094 
Q 2938 2591 2744 2837 
Q 2550 3084 2163 3084 
Q 1697 3084 1428 2787 
Q 1159 2491 1159 1978 
L 1159 0 
L 581 0 
L 581 3500 
L 1159 3500 
L 1159 2956 
Q 1366 3272 1645 3428 
Q 1925 3584 2291 3584 
Q 2894 3584 3203 3211 
Q 3513 2838 3513 2113 
z
" transform="scale(0.015625)"/>
       <path id="DejaVuSans-Oblique-71" d="M 2669 525 
Q 2438 222 2123 65 
Q 1809 -91 1428 -91 
Q 897 -91 595 267 
Q 294 625 294 1253 
Q 294 1759 480 2231 
Q 666 2703 1013 3078 
Q 1238 3322 1530 3453 
Q 1822 3584 2144 3584 
Q 2531 3584 2781 3431 
Q 3031 3278 3144 2969 
L 3244 3494 
L 3822 3494 
L 2888 -1319 
L 2309 -1319 
L 2669 525 
z
M 891 1338 
Q 891 875 1084 633 
Q 1278 391 1644 391 
Q 2188 391 2572 911 
Q 2956 1431 2956 2175 
Q 2956 2625 2757 2864 
Q 2559 3103 2188 3103 
Q 1916 3103 1684 2976 
Q 1453 2850 1281 2606 
Q 1100 2350 995 2006 
Q 891 1663 891 1338 
z
" transform="scale(0.015625)"/>
       <path id="DejaVuSans-3d" d="M 678 2906 
L 4684 2906 
L 4684 2381 
L 678 2381 
L 678 2906 
z
M 678 1631 
L 4684 1631 
L 4684 1100 
L 678 1100 
L 678 1631 
z
" transform="scale(0.015625)"/>
       <path id="DejaVuSans-36" d="M 2113 2584 
Q 1688 2584 1439 2293 
Q 1191 2003 1191 1497 
Q 1191 994 1439 701 
Q 1688 409 2113 409 
Q 2538 409 2786 701 
Q 3034 994 3034 1497 
Q 3034 2003 2786 2293 
Q 2538 2584 2113 2584 
z
M 3366 4563 
L 3366 3988 
Q 3128 4100 2886 4159 
Q 2644 4219 2406 4219 
Q 1781 4219 1451 3797 
Q 1122 3375 1075 2522 
Q 1259 2794 1537 2939 
Q 1816 3084 2150 3084 
Q 2853 3084 3261 2657 
Q 3669 2231 3669 1497 
Q 3669 778 3244 343 
Q 2819 -91 2113 -91 
Q 1303 -91 875 529 
Q 447 1150 447 2328 
Q 447 3434 972 4092 
Q 1497 4750 2381 4750 
Q 2619 4750 2861 4703 
Q 3103 4656 3366 4563 
z
" transform="scale(0.015625)"/>
      </defs>
      <use xlink:href="#DejaVuSans-394" transform="translate(0 0.015625)"/>
      <use xlink:href="#STIXNonUnicode-Italic-e236" transform="translate(68.408203 0.015625)"/>
      <use xlink:href="#DejaVuSans-20" transform="translate(131.6082 0.015625)"/>
      <use xlink:href="#DejaVuSans-77" transform="translate(163.395309 0.015625)"/>
      <use xlink:href="#DejaVuSans-68" transform="translate(245.182419 0.015625)"/>
      <use xlink:href="#DejaVuSans-65" transform="translate(308.561325 0.015625)"/>
      <use xlink:href="#DejaVuSans-6e" transform="translate(370.084763 0.015625)"/>
      <use xlink:href="#DejaVuSans-20" transform="translate(433.463669 0.015625)"/>
      <use xlink:href="#DejaVuSans-Oblique-71" transform="translate(465.250778 0.015625)"/>
      <use xlink:href="#DejaVuSans-3d" transform="translate(548.209763 0.015625)"/>
      <use xlink:href="#DejaVuSans-36" transform="translate(651.481247 0.015625)"/>
      <use xlink:href="#DejaVuSans-34" transform="translate(715.104294 0.015625)"/>
     </g>
    </g>
    <g id="line2d_22">
     <path d="M 108.870937 76.672 
L 120.870937 76.672 
L 132.870937 76.672 
" style="fill: none; stroke: #3c405b; stroke-width: 1.5; stroke-linecap: square"/>
    </g>
    <g id="text_21">
     <!-- $\Delta\mathcal{J}$ when $q=32$ -->
     <g transform="translate(142.470937 80.872)scale(0.12 -0.12)">
      <use xlink:href="#DejaVuSans-394" transform="translate(0 0.015625)"/>
      <use xlink:href="#STIXNonUnicode-Italic-e236" transform="translate(68.408203 0.015625)"/>
      <use xlink:href="#DejaVuSans-20" transform="translate(131.6082 0.015625)"/>
      <use xlink:href="#DejaVuSans-77" transform="translate(163.395309 0.015625)"/>
      <use xlink:href="#DejaVuSans-68" transform="translate(245.182419 0.015625)"/>
      <use xlink:href="#DejaVuSans-65" transform="translate(308.561325 0.015625)"/>
      <use xlink:href="#DejaVuSans-6e" transform="translate(370.084763 0.015625)"/>
      <use xlink:href="#DejaVuSans-20" transform="translate(433.463669 0.015625)"/>
      <use xlink:href="#DejaVuSans-Oblique-71" transform="translate(465.250778 0.015625)"/>
      <use xlink:href="#DejaVuSans-3d" transform="translate(548.209763 0.015625)"/>
      <use xlink:href="#DejaVuSans-33" transform="translate(651.481247 0.015625)"/>
      <use xlink:href="#DejaVuSans-32" transform="translate(715.104294 0.015625)"/>
     </g>
    </g>
    <g id="line2d_23">
     <path d="M 108.870937 94.312 
L 120.870937 94.312 
L 132.870937 94.312 
" style="fill: none; stroke: #82b29a; stroke-width: 1.5; stroke-linecap: square"/>
    </g>
    <g id="text_22">
     <!-- $\Delta\mathcal{J}$ when $q=16$ -->
     <g transform="translate(142.470937 98.512)scale(0.12 -0.12)">
      <use xlink:href="#DejaVuSans-394" transform="translate(0 0.015625)"/>
      <use xlink:href="#STIXNonUnicode-Italic-e236" transform="translate(68.408203 0.015625)"/>
      <use xlink:href="#DejaVuSans-20" transform="translate(131.6082 0.015625)"/>
      <use xlink:href="#DejaVuSans-77" transform="translate(163.395309 0.015625)"/>
      <use xlink:href="#DejaVuSans-68" transform="translate(245.182419 0.015625)"/>
      <use xlink:href="#DejaVuSans-65" transform="translate(308.561325 0.015625)"/>
      <use xlink:href="#DejaVuSans-6e" transform="translate(370.084763 0.015625)"/>
      <use xlink:href="#DejaVuSans-20" transform="translate(433.463669 0.015625)"/>
      <use xlink:href="#DejaVuSans-Oblique-71" transform="translate(465.250778 0.015625)"/>
      <use xlink:href="#DejaVuSans-3d" transform="translate(548.209763 0.015625)"/>
      <use xlink:href="#DejaVuSans-31" transform="translate(651.481247 0.015625)"/>
      <use xlink:href="#DejaVuSans-36" transform="translate(715.104294 0.015625)"/>
     </g>
    </g>
    <g id="line2d_24">
     <path d="M 108.870937 111.952 
L 120.870937 111.952 
L 132.870937 111.952 
" style="fill: none; stroke: #dc143c; stroke-width: 1.5; stroke-linecap: square"/>
    </g>
    <g id="text_23">
     <!-- $\Delta\mathcal{J}$ when $q=8$ -->
     <g transform="translate(142.470937 116.152)scale(0.12 -0.12)">
      <defs>
       <path id="DejaVuSans-38" d="M 2034 2216 
Q 1584 2216 1326 1975 
Q 1069 1734 1069 1313 
Q 1069 891 1326 650 
Q 1584 409 2034 409 
Q 2484 409 2743 651 
Q 3003 894 3003 1313 
Q 3003 1734 2745 1975 
Q 2488 2216 2034 2216 
z
M 1403 2484 
Q 997 2584 770 2862 
Q 544 3141 544 3541 
Q 544 4100 942 4425 
Q 1341 4750 2034 4750 
Q 2731 4750 3128 4425 
Q 3525 4100 3525 3541 
Q 3525 3141 3298 2862 
Q 3072 2584 2669 2484 
Q 3125 2378 3379 2068 
Q 3634 1759 3634 1313 
Q 3634 634 3220 271 
Q 2806 -91 2034 -91 
Q 1263 -91 848 271 
Q 434 634 434 1313 
Q 434 1759 690 2068 
Q 947 2378 1403 2484 
z
M 1172 3481 
Q 1172 3119 1398 2916 
Q 1625 2713 2034 2713 
Q 2441 2713 2670 2916 
Q 2900 3119 2900 3481 
Q 2900 3844 2670 4047 
Q 2441 4250 2034 4250 
Q 1625 4250 1398 4047 
Q 1172 3844 1172 3481 
z
" transform="scale(0.015625)"/>
      </defs>
      <use xlink:href="#DejaVuSans-394" transform="translate(0 0.015625)"/>
      <use xlink:href="#STIXNonUnicode-Italic-e236" transform="translate(68.408203 0.015625)"/>
      <use xlink:href="#DejaVuSans-20" transform="translate(131.6082 0.015625)"/>
      <use xlink:href="#DejaVuSans-77" transform="translate(163.395309 0.015625)"/>
      <use xlink:href="#DejaVuSans-68" transform="translate(245.182419 0.015625)"/>
      <use xlink:href="#DejaVuSans-65" transform="translate(308.561325 0.015625)"/>
      <use xlink:href="#DejaVuSans-6e" transform="translate(370.084763 0.015625)"/>
      <use xlink:href="#DejaVuSans-20" transform="translate(433.463669 0.015625)"/>
      <use xlink:href="#DejaVuSans-Oblique-71" transform="translate(465.250778 0.015625)"/>
      <use xlink:href="#DejaVuSans-3d" transform="translate(548.209763 0.015625)"/>
      <use xlink:href="#DejaVuSans-38" transform="translate(651.481247 0.015625)"/>
     </g>
    </g>
   </g>
  </g>
  <g id="axes_2">
   <g id="PolyCollection_5">
    <defs>
     <path id="me83b9a6163" d="M 70.231534 -280.489587 
L 70.231534 -195.132113 
L 84.944318 -71.994858 
L 99.657102 -70.883838 
L 114.369886 -70.941578 
L 129.08267 -70.255461 
L 143.795455 -71.367701 
L 158.508239 -69.650749 
L 173.221023 -70.353177 
L 187.933807 -69.314226 
L 202.646591 -69.811107 
L 217.359375 -70.35629 
L 232.072159 -70.070956 
L 246.784943 -69.619088 
L 261.497727 -69.331893 
L 276.210511 -69.671454 
L 290.923295 -69.36308 
L 305.63608 -69.607714 
L 320.348864 -68.544557 
L 335.061648 -68.937412 
L 349.774432 -68.807008 
L 364.487216 -67.647005 
L 364.487216 -68.69307 
L 364.487216 -68.69307 
L 349.774432 -69.640709 
L 335.061648 -69.602988 
L 320.348864 -68.764793 
L 305.63608 -70.899536 
L 290.923295 -69.99802 
L 276.210511 -69.795771 
L 261.497727 -71.486657 
L 246.784943 -71.857437 
L 232.072159 -71.351799 
L 217.359375 -70.99996 
L 202.646591 -70.901318 
L 187.933807 -69.798541 
L 173.221023 -71.823773 
L 158.508239 -71.111201 
L 143.795455 -72.570924 
L 129.08267 -71.277664 
L 114.369886 -71.836747 
L 99.657102 -71.866187 
L 84.944318 -73.832792 
L 70.231534 -280.489587 
z
" style="stroke: #f2cc8e; stroke-opacity: 0.25"/>
    </defs>
    <g clip-path="url(#p2fa5f25393)">
     <use xlink:href="#me83b9a6163" x="0" y="288" style="fill: #f2cc8e; fill-opacity: 0.25; stroke: #f2cc8e; stroke-opacity: 0.25"/>
    </g>
   </g>
   <g id="matplotlib.axis_3">
    <g id="ytick_8">
     <g id="line2d_25">
      <defs>
       <path id="md71e003f27" d="M 0 0 
L 3.5 0 
" style="stroke: #000000; stroke-width: 0.8"/>
      </defs>
      <g>
       <use xlink:href="#md71e003f27" x="379.2" y="241.2" style="stroke: #000000; stroke-width: 0.8"/>
      </g>
     </g>
     <g id="text_24">
      <!-- 0.0 -->
      <g transform="translate(386.2 244.999219)scale(0.1 -0.1)">
       <use xlink:href="#DejaVuSans-30"/>
       <use xlink:href="#DejaVuSans-2e" x="63.623047"/>
       <use xlink:href="#DejaVuSans-30" x="95.410156"/>
      </g>
     </g>
    </g>
    <g id="ytick_9">
     <g id="line2d_26">
      <g>
       <use xlink:href="#md71e003f27" x="379.2" y="212.9" style="stroke: #000000; stroke-width: 0.8"/>
      </g>
     </g>
     <g id="text_25">
      <!-- 0.2 -->
      <g transform="translate(386.2 216.699219)scale(0.1 -0.1)">
       <use xlink:href="#DejaVuSans-30"/>
       <use xlink:href="#DejaVuSans-2e" x="63.623047"/>
       <use xlink:href="#DejaVuSans-32" x="95.410156"/>
      </g>
     </g>
    </g>
    <g id="ytick_10">
     <g id="line2d_27">
      <g>
       <use xlink:href="#md71e003f27" x="379.2" y="184.6" style="stroke: #000000; stroke-width: 0.8"/>
      </g>
     </g>
     <g id="text_26">
      <!-- 0.4 -->
      <g transform="translate(386.2 188.399219)scale(0.1 -0.1)">
       <use xlink:href="#DejaVuSans-30"/>
       <use xlink:href="#DejaVuSans-2e" x="63.623047"/>
       <use xlink:href="#DejaVuSans-34" x="95.410156"/>
      </g>
     </g>
    </g>
    <g id="ytick_11">
     <g id="line2d_28">
      <g>
       <use xlink:href="#md71e003f27" x="379.2" y="156.3" style="stroke: #000000; stroke-width: 0.8"/>
      </g>
     </g>
     <g id="text_27">
      <!-- 0.6 -->
      <g transform="translate(386.2 160.099219)scale(0.1 -0.1)">
       <use xlink:href="#DejaVuSans-30"/>
       <use xlink:href="#DejaVuSans-2e" x="63.623047"/>
       <use xlink:href="#DejaVuSans-36" x="95.410156"/>
      </g>
     </g>
    </g>
    <g id="ytick_12">
     <g id="line2d_29">
      <g>
       <use xlink:href="#md71e003f27" x="379.2" y="128" style="stroke: #000000; stroke-width: 0.8"/>
      </g>
     </g>
     <g id="text_28">
      <!-- 0.8 -->
      <g transform="translate(386.2 131.799219)scale(0.1 -0.1)">
       <use xlink:href="#DejaVuSans-30"/>
       <use xlink:href="#DejaVuSans-2e" x="63.623047"/>
       <use xlink:href="#DejaVuSans-38" x="95.410156"/>
      </g>
     </g>
    </g>
    <g id="ytick_13">
     <g id="line2d_30">
      <g>
       <use xlink:href="#md71e003f27" x="379.2" y="99.7" style="stroke: #000000; stroke-width: 0.8"/>
      </g>
     </g>
     <g id="text_29">
      <!-- 1.0 -->
      <g transform="translate(386.2 103.499219)scale(0.1 -0.1)">
       <use xlink:href="#DejaVuSans-31"/>
       <use xlink:href="#DejaVuSans-2e" x="63.623047"/>
       <use xlink:href="#DejaVuSans-30" x="95.410156"/>
      </g>
     </g>
    </g>
    <g id="ytick_14">
     <g id="line2d_31">
      <g>
       <use xlink:href="#md71e003f27" x="379.2" y="71.4" style="stroke: #000000; stroke-width: 0.8"/>
      </g>
     </g>
     <g id="text_30">
      <!-- 1.2 -->
      <g transform="translate(386.2 75.199219)scale(0.1 -0.1)">
       <use xlink:href="#DejaVuSans-31"/>
       <use xlink:href="#DejaVuSans-2e" x="63.623047"/>
       <use xlink:href="#DejaVuSans-32" x="95.410156"/>
      </g>
     </g>
    </g>
    <g id="ytick_15">
     <g id="line2d_32">
      <g>
       <use xlink:href="#md71e003f27" x="379.2" y="43.1" style="stroke: #000000; stroke-width: 0.8"/>
      </g>
     </g>
     <g id="text_31">
      <!-- 1.4 -->
      <g transform="translate(386.2 46.899219)scale(0.1 -0.1)">
       <use xlink:href="#DejaVuSans-31"/>
       <use xlink:href="#DejaVuSans-2e" x="63.623047"/>
       <use xlink:href="#DejaVuSans-34" x="95.410156"/>
      </g>
     </g>
    </g>
    <g id="ytick_16">
     <g id="line2d_33">
      <g>
       <use xlink:href="#md71e003f27" x="379.2" y="14.8" style="stroke: #000000; stroke-width: 0.8"/>
      </g>
     </g>
     <g id="text_32">
      <!-- 1.6 -->
      <g transform="translate(386.2 18.599219)scale(0.1 -0.1)">
       <use xlink:href="#DejaVuSans-31"/>
       <use xlink:href="#DejaVuSans-2e" x="63.623047"/>
       <use xlink:href="#DejaVuSans-36" x="95.410156"/>
      </g>
     </g>
    </g>
    <g id="text_33">
     <!-- MAE -->
     <g transform="translate(417.500781 144.340625)rotate(-90)scale(0.15 -0.15)">
      <defs>
       <path id="DejaVuSans-4d" d="M 628 4666 
L 1569 4666 
L 2759 1491 
L 3956 4666 
L 4897 4666 
L 4897 0 
L 4281 0 
L 4281 4097 
L 3078 897 
L 2444 897 
L 1241 4097 
L 1241 0 
L 628 0 
L 628 4666 
z
" transform="scale(0.015625)"/>
       <path id="DejaVuSans-41" d="M 2188 4044 
L 1331 1722 
L 3047 1722 
L 2188 4044 
z
M 1831 4666 
L 2547 4666 
L 4325 0 
L 3669 0 
L 3244 1197 
L 1141 1197 
L 716 0 
L 50 0 
L 1831 4666 
z
" transform="scale(0.015625)"/>
       <path id="DejaVuSans-45" d="M 628 4666 
L 3578 4666 
L 3578 4134 
L 1259 4134 
L 1259 2753 
L 3481 2753 
L 3481 2222 
L 1259 2222 
L 1259 531 
L 3634 531 
L 3634 0 
L 628 0 
L 628 4666 
z
" transform="scale(0.015625)"/>
      </defs>
      <use xlink:href="#DejaVuSans-4d"/>
      <use xlink:href="#DejaVuSans-41" x="86.279297"/>
      <use xlink:href="#DejaVuSans-45" x="154.6875"/>
     </g>
    </g>
   </g>
   <g id="line2d_34">
    <path d="M 70.231534 50.18915 
L 84.944318 215.086175 
L 99.657102 216.624988 
L 114.369886 216.610838 
L 129.08267 217.233438 
L 143.795455 216.030687 
L 158.508239 217.619025 
L 173.221023 216.911525 
L 187.933807 218.443616 
L 202.646591 217.643788 
L 217.359375 217.321875 
L 232.072159 217.288623 
L 246.784943 217.261738 
L 261.497727 217.590725 
L 276.210511 218.266388 
L 290.923295 218.31945 
L 305.63608 217.746375 
L 320.348864 219.345325 
L 335.061648 218.7298 
L 349.774432 218.776141 
L 364.487216 219.829962 
" clip-path="url(#p2fa5f25393)" style="fill: none; stroke-dasharray: 9.6,2.4,1.5,2.4; stroke-dashoffset: 0; stroke: #f2cc8e; stroke-width: 1.5"/>
   </g>
   <g id="patch_8">
    <path d="M 55.51875 241.2 
L 55.51875 14.8 
" style="fill: none; stroke: #000000; stroke-width: 0.8; stroke-linejoin: miter; stroke-linecap: square"/>
   </g>
   <g id="patch_9">
    <path d="M 379.2 241.2 
L 379.2 14.8 
" style="fill: none; stroke: #000000; stroke-width: 0.8; stroke-linejoin: miter; stroke-linecap: square"/>
   </g>
   <g id="patch_10">
    <path d="M 55.51875 241.2 
L 379.2 241.2 
" style="fill: none; stroke: #000000; stroke-width: 0.8; stroke-linejoin: miter; stroke-linecap: square"/>
   </g>
   <g id="patch_11">
    <path d="M 55.51875 14.8 
L 379.2 14.8 
" style="fill: none; stroke: #000000; stroke-width: 0.8; stroke-linejoin: miter; stroke-linecap: square"/>
   </g>
   <g id="legend_2">
    <g id="patch_12">
     <path d="M 290.96925 78.192 
L 355.51425 78.192 
Q 357.91425 78.192 357.91425 75.792 
L 357.91425 59.37825 
Q 357.91425 56.97825 355.51425 56.97825 
L 290.96925 56.97825 
Q 288.56925 56.97825 288.56925 59.37825 
L 288.56925 75.792 
Q 288.56925 78.192 290.96925 78.192 
z
" style="fill: #ffffff; opacity: 0.8; stroke: #cccccc; stroke-linejoin: miter"/>
    </g>
    <g id="line2d_35">
     <path d="M 293.36925 66.696375 
L 305.36925 66.696375 
L 317.36925 66.696375 
" style="fill: none; stroke-dasharray: 9.6,2.4,1.5,2.4; stroke-dashoffset: 0; stroke: #f2cc8e; stroke-width: 1.5"/>
    </g>
    <g id="text_34">
     <!-- MAE -->
     <g transform="translate(326.96925 70.896375)scale(0.12 -0.12)">
      <use xlink:href="#DejaVuSans-4d"/>
      <use xlink:href="#DejaVuSans-41" x="86.279297"/>
      <use xlink:href="#DejaVuSans-45" x="154.6875"/>
     </g>
    </g>
   </g>
  </g>
 </g>
 <defs>
  <clipPath id="p2fa5f25393">
   <rect x="55.51875" y="14.8" width="323.68125" height="226.4"/>
  </clipPath>
 </defs>
</svg>
